<?xml version="1.0" standalone="no"?>
<!DOCTYPE svg PUBLIC "-//W3C//DTD SVG 20010904//EN"
 "http://www.w3.org/TR/2001/REC-SVG-20010904/DTD/svg10.dtd">
<svg version="1.0" xmlns="http://www.w3.org/2000/svg"
 width="300.000000pt" height="246.000000pt" viewBox="0 0 300.000000 246.000000"
 preserveAspectRatio="xMidYMid meet">
<metadata>
Created by potrace 1.10, written by Peter Selinger 2001-2011
</metadata>
<g transform="translate(0.000000,246.000000) scale(0.100000,-0.100000)"
fill="#000000" stroke="none">
<path d="M1060 2050 c0 -47 4 -80 10 -80 6 0 10 33 10 80 0 47 -4 80 -10 80
-6 0 -10 -33 -10 -80z"/>
<path d="M1810 2050 c0 -47 4 -80 10 -80 6 0 10 33 10 80 0 47 -4 80 -10 80
-6 0 -10 -33 -10 -80z"/>
<path d="M2080 2048 c0 -81 15 -101 22 -28 2 24 9 36 21 38 14 3 17 -4 17 -42
0 -25 5 -46 10 -46 15 0 12 86 -4 99 -7 6 -21 9 -30 5 -13 -5 -16 0 -16 25 0
17 -4 31 -10 31 -6 0 -10 -34 -10 -82z"/>
<path d="M220 2046 c0 -36 5 -68 10 -71 6 -4 10 20 10 64 0 41 -4 71 -10 71
-6 0 -10 -28 -10 -64z"/>
<path d="M730 2100 c0 -5 5 -10 10 -10 6 0 10 5 10 10 0 6 -4 10 -10 10 -5 0
-10 -4 -10 -10z"/>
<path d="M1108 2088 c-10 -29 4 -99 22 -108 13 -7 21 -7 25 0 3 5 -1 10 -9 10
-12 0 -16 10 -16 35 0 24 5 35 15 35 8 0 15 5 15 10 0 6 -7 10 -15 10 -8 0
-15 5 -15 10 0 14 -17 12 -22 -2z"/>
<path d="M2000 2083 c-10 -12 -11 -18 -2 -21 7 -2 12 -19 12 -37 0 -35 32 -67
45 -45 3 5 -1 10 -9 10 -12 0 -16 10 -16 35 0 24 5 35 15 35 8 0 15 5 15 10 0
6 -7 10 -15 10 -8 0 -15 5 -15 10 0 15 -13 12 -30 -7z"/>
<path d="M333 2073 c-22 -8 -14 -19 14 -18 14 0 28 -6 30 -13 3 -7 -1 -10 -9
-7 -21 8 -52 -19 -45 -39 4 -11 18 -16 42 -16 33 0 35 2 35 34 0 49 -29 75
-67 59z m47 -62 c0 -6 -5 -13 -10 -16 -15 -9 -43 3 -35 15 8 13 45 13 45 1z"/>
<path d="M431 2027 c-1 -35 3 -56 9 -52 5 3 7 18 4 33 -4 19 0 32 10 41 23 19
36 4 36 -42 0 -49 17 -39 22 13 5 53 32 47 36 -8 2 -23 7 -40 13 -37 14 9 11
69 -5 91 -12 16 -18 17 -34 7 -15 -9 -22 -9 -31 0 -9 9 -16 9 -31 0 -14 -10
-20 -10 -23 0 -3 7 -6 -14 -6 -46z"/>
<path d="M652 2068 c-19 -19 -14 -34 14 -46 28 -13 23 -37 -7 -29 -11 3 -19 1
-19 -4 0 -5 13 -9 29 -9 44 0 50 38 9 53 -25 9 -23 31 3 24 13 -3 19 -1 16 6
-5 17 -30 20 -45 5z"/>
<path d="M730 2025 c0 -30 5 -55 10 -55 6 0 10 25 10 55 0 30 -4 55 -10 55 -5
0 -10 -25 -10 -55z"/>
<path d="M780 2021 c0 -60 16 -61 22 -1 2 24 9 36 21 38 14 3 17 -4 17 -44 0
-55 17 -50 22 6 2 24 9 36 21 38 14 3 17 -4 17 -42 0 -25 5 -46 10 -46 6 0 10
20 10 44 0 52 -21 76 -50 58 -10 -6 -21 -8 -25 -4 -4 4 -20 7 -36 7 -28 0 -29
-1 -29 -54z"/>
<path d="M952 2033 c3 -47 4 -48 41 -54 l37 -6 0 54 c0 63 -17 72 -22 11 -2
-31 -8 -44 -20 -46 -15 -3 -18 4 -18 42 0 26 -5 46 -11 46 -6 0 -9 -19 -7 -47z"/>
<path d="M1193 2073 c-21 -8 -15 -19 10 -18 30 0 38 -18 9 -20 -27 -2 -43 -21
-35 -43 4 -9 16 -12 34 -10 16 3 31 0 33 -6 2 -6 5 12 5 40 1 58 -15 74 -56
57z m47 -62 c0 -12 -29 -23 -41 -15 -5 3 -7 10 -4 15 8 12 45 12 45 0z"/>
<path d="M1280 2031 c0 -62 18 -77 22 -19 2 35 7 43 23 43 16 0 21 -8 23 -43
2 -23 6 -40 10 -38 4 2 6 25 4 49 -4 48 -23 67 -48 46 -10 -8 -14 -8 -14 0 0
6 -4 11 -10 11 -5 0 -10 -22 -10 -49z"/>
<path d="M1406 2064 c-19 -18 -21 -55 -4 -72 14 -14 64 -16 72 -3 3 5 -8 8
-25 7 -18 0 -34 5 -36 12 -3 8 7 12 31 12 40 0 47 17 18 43 -23 21 -36 21 -56
1z m51 -19 c2 -5 -8 -10 -22 -10 -25 0 -31 6 -18 19 9 9 36 3 40 -9z"/>
<path d="M1516 2067 c-12 -9 -17 -23 -14 -47 3 -30 7 -35 31 -38 35 -4 57 13
57 44 0 24 -24 54 -44 54 -7 0 -20 -6 -30 -13z m52 -40 c4 -33 -22 -47 -45
-24 -22 21 -8 59 20 55 16 -2 23 -11 25 -31z"/>
<path d="M1610 2043 c0 -51 12 -67 44 -61 14 3 26 1 26 -5 0 -6 3 -7 6 -4 4 4
7 27 7 52 0 25 -3 48 -7 52 -3 3 -6 -10 -6 -29 0 -37 -21 -65 -40 -53 -5 3
-10 24 -10 46 0 21 -4 39 -10 39 -5 0 -10 -17 -10 -37z"/>
<path d="M1732 2068 c-19 -19 -14 -34 14 -46 28 -13 23 -37 -7 -29 -11 3 -19
1 -19 -5 0 -5 15 -8 32 -6 42 4 51 34 14 48 -31 11 -35 35 -5 27 13 -3 19 -1
16 6 -5 17 -30 20 -45 5z"/>
<path d="M1850 2070 c0 -6 7 -27 15 -48 9 -20 13 -47 10 -60 -4 -16 -2 -23 6
-20 6 2 22 33 35 68 28 76 26 70 14 70 -5 0 -15 -19 -22 -41 l-12 -42 -18 42
c-17 40 -28 52 -28 31z"/>
<path d="M2194 2055 c-26 -39 -6 -75 41 -75 19 0 35 4 35 9 0 5 -14 8 -31 7
-18 0 -34 5 -36 12 -3 8 7 12 31 12 29 0 36 4 36 20 0 18 -26 40 -49 40 -6 0
-18 -11 -27 -25z m56 -7 c0 -7 -11 -13 -25 -13 -25 0 -31 6 -18 18 11 12 43 8
43 -5z"/>
<path d="M337 1853 c-12 -11 -8 -23 8 -23 8 0 15 7 15 15 0 16 -12 20 -23 8z"/>
<path d="M1072 1831 c4 -26 2 -28 -25 -27 -36 1 -51 -29 -33 -65 8 -18 20 -24
44 -24 l32 -1 0 73 c0 47 -4 73 -11 73 -7 0 -10 -12 -7 -29z m-4 -43 c13 -17
-3 -58 -22 -58 -20 0 -30 38 -16 55 15 18 25 19 38 3z"/>
<path d="M675 1830 c3 -5 1 -10 -4 -10 -6 0 -11 -7 -11 -15 0 -8 5 -15 10 -15
6 0 10 -18 10 -40 0 -36 3 -40 25 -40 14 0 25 5 25 10 0 6 -7 10 -15 10 -10 0
-15 10 -15 30 0 20 5 30 15 30 8 0 15 7 15 16 0 10 -6 14 -15 10 -9 -3 -15 0
-15 9 0 8 -7 15 -16 15 -8 0 -12 -4 -9 -10z"/>
<path d="M1863 1821 c-6 -10 -8 -22 -3 -27 5 -5 10 -25 12 -44 2 -27 8 -36 26
-38 12 -2 22 1 22 7 0 6 -4 11 -10 11 -5 0 -10 14 -10 30 0 17 5 30 10 30 15
0 12 19 -4 36 -19 19 -29 18 -43 -5z"/>
<path d="M220 1765 c0 -42 4 -55 15 -55 11 0 13 8 9 30 -6 29 8 60 27 60 5 0
9 -20 9 -45 0 -33 4 -45 15 -45 11 0 15 12 15 44 0 53 -21 77 -51 58 -11 -7
-19 -8 -19 -2 0 5 -4 10 -10 10 -5 0 -10 -25 -10 -55z"/>
<path d="M339 1818 c0 -2 -2 -27 -2 -55 -2 -37 2 -53 10 -53 9 0 13 18 13 55
0 30 -4 55 -10 55 -5 0 -10 -1 -11 -2z"/>
<path d="M403 1812 c-18 -12 -26 -58 -13 -81 12 -24 70 -30 70 -8 0 8 -10 13
-22 13 -19 -1 -23 4 -23 29 0 25 4 30 23 27 15 -1 22 2 20 10 -5 15 -38 21
-55 10z"/>
<path d="M486 1804 c-18 -18 -20 -47 -6 -75 12 -22 80 -28 80 -6 0 7 -11 13
-27 12 -14 0 -28 6 -30 13 -3 8 6 12 26 12 23 0 31 5 31 18 0 39 -45 55 -74
26z m52 -22 c2 -6 -6 -10 -17 -9 -22 1 -26 8 -14 21 9 9 26 3 31 -12z"/>
<path d="M587 1814 c-15 -15 -6 -45 18 -56 28 -12 23 -32 -6 -25 -12 3 -19 0
-19 -10 0 -10 9 -13 33 -11 43 4 51 42 13 60 -34 15 -34 32 0 24 19 -5 25 -3
22 6 -5 14 -50 23 -61 12z"/>
<path d="M1170 1765 c0 -43 3 -55 16 -55 11 0 15 8 13 33 -2 18 0 38 5 45 15
25 26 11 26 -33 0 -33 4 -45 14 -45 10 0 16 13 18 42 4 59 28 63 28 4 0 -34 4
-46 15 -46 11 0 15 12 15 44 0 52 -21 76 -50 59 -13 -9 -20 -9 -29 0 -9 9 -16
8 -31 -1 -12 -7 -20 -8 -20 -2 0 5 -4 10 -10 10 -5 0 -10 -25 -10 -55z"/>
<path d="M1352 1808 c-17 -17 -15 -73 2 -87 17 -14 67 -11 66 4 -1 6 -11 9
-24 7 -14 -2 -26 3 -29 12 -5 13 1 16 28 16 27 0 35 4 35 18 0 24 -19 42 -45
42 -12 0 -26 -5 -33 -12z m49 -23 c-1 -10 -20 -14 -34 -7 -4 2 -5 8 -1 13 7
13 35 8 35 -6z"/>
<path d="M1457 1814 c-14 -14 -7 -23 17 -21 27 2 36 -15 11 -19 -58 -9 -48
-64 11 -62 l35 1 -3 51 c-3 49 -4 51 -33 54 -17 2 -34 0 -38 -4z m53 -64 c0
-12 -28 -25 -36 -17 -9 9 6 27 22 27 8 0 14 -5 14 -10z"/>
<path d="M1560 1764 c0 -40 3 -54 13 -51 7 2 11 17 9 37 -3 30 9 49 31 50 4 0
7 -20 7 -45 0 -33 4 -45 15 -45 11 0 15 12 15 44 0 53 -21 77 -51 58 -11 -7
-19 -8 -19 -2 0 5 -4 10 -10 10 -5 0 -10 -25 -10 -56z"/>
<path d="M1682 1808 c-17 -17 -15 -73 2 -87 17 -14 67 -11 66 4 -1 6 -11 9
-24 7 -14 -2 -26 3 -29 12 -5 13 1 16 28 16 27 0 35 4 35 18 0 24 -19 42 -45
42 -12 0 -26 -5 -33 -12z m49 -22 c-1 -16 -31 -15 -31 1 0 8 7 13 16 11 8 -2
15 -7 15 -12z"/>
<path d="M1787 1813 c-14 -13 -6 -43 13 -53 29 -15 25 -33 -5 -26 -19 5 -23 3
-19 -9 7 -18 45 -20 62 -3 19 19 14 37 -13 50 -30 13 -34 33 -5 25 13 -3 20 0
20 9 0 14 -41 20 -53 7z"/>
<path d="M795 1800 c-4 -7 2 -10 21 -8 15 2 29 -2 31 -9 2 -7 -8 -13 -24 -15
-20 -2 -29 -9 -31 -25 -2 -13 0 -24 5 -24 4 -1 23 -3 41 -5 l33 -2 -3 46 c-3
45 -5 47 -35 50 -17 2 -34 -2 -38 -8z m55 -55 c0 -8 -9 -15 -20 -15 -20 0 -26
11 -13 23 12 13 33 7 33 -8z"/>
<path d="M900 1759 c0 -60 18 -65 22 -6 2 29 8 42 18 42 10 0 16 -13 18 -42 2
-24 8 -43 13 -43 6 0 9 21 7 48 -3 47 -3 47 -40 49 l-38 1 0 -49z"/>
<path d="M1990 1745 c0 -35 5 -67 10 -70 6 -3 10 5 10 19 0 21 4 24 27 23 21
-2 29 4 37 26 14 40 -2 62 -48 64 l-36 1 0 -63z m65 19 c0 -22 -5 -29 -20 -29
-23 0 -32 30 -14 51 18 22 34 11 34 -22z"/>
<path d="M2112 1798 c-22 -22 -15 -67 12 -80 25 -11 56 -6 56 10 0 5 -13 7
-30 4 -23 -3 -30 0 -30 12 0 12 9 16 35 16 38 0 40 2 25 31 -12 21 -50 25 -68
7z m56 -15 c2 -8 -6 -13 -22 -13 -25 0 -33 10 -19 24 10 10 36 3 41 -11z"/>
<path d="M2210 1758 c0 -26 5 -48 10 -48 6 0 10 15 10 34 0 33 20 62 33 49 4
-3 7 -1 7 5 0 6 -13 10 -30 10 -29 -1 -30 -3 -30 -50z"/>
<path d="M2287 1803 c-14 -14 -6 -34 18 -43 33 -13 33 -34 0 -27 -16 3 -24 0
-22 -7 6 -18 43 -18 58 0 12 14 10 19 -15 39 -29 23 -23 41 10 28 12 -4 15 -3
10 5 -8 13 -48 16 -59 5z"/>
<path d="M2382 1798 c-17 -17 -15 -63 3 -78 23 -19 64 -4 71 27 4 14 2 33 -3
42 -13 20 -54 26 -71 9z m53 -33 c0 -23 -5 -31 -21 -33 -26 -4 -38 22 -23 49
16 30 44 20 44 -16z"/>
<path d="M2480 1758 c0 -26 5 -48 10 -48 6 0 10 15 10 34 0 35 21 63 40 51 5
-3 10 -24 10 -46 0 -21 5 -39 10 -39 15 0 12 76 -3 88 -7 6 -27 10 -45 10 -32
-1 -32 -2 -32 -50z"/>
<path d="M790 1525 c0 -43 4 -75 10 -75 6 0 10 32 10 75 0 43 -4 75 -10 75 -6
0 -10 -32 -10 -75z"/>
<path d="M840 1525 c0 -43 4 -75 10 -75 6 0 10 32 10 75 0 43 -4 75 -10 75 -6
0 -10 -32 -10 -75z"/>
<path d="M745 1579 c-10 -15 3 -25 16 -12 7 7 7 13 1 17 -6 3 -14 1 -17 -5z"/>
<path d="M1767 1573 c-5 -7 -5 -13 0 -13 4 0 1 -5 -7 -10 -13 -8 -13 -11 -1
-19 8 -5 12 -18 8 -31 -3 -12 -3 -28 0 -36 6 -16 43 -19 43 -4 0 6 -6 9 -12 8
-8 -2 -14 10 -16 30 -2 24 1 32 12 32 9 0 16 5 16 10 0 6 -6 10 -14 10 -8 0
-16 8 -18 18 -3 12 -6 14 -11 5z"/>
<path d="M216 1528 c3 -13 12 -38 20 -55 7 -20 9 -35 3 -38 -13 -9 -11 -27 2
-23 6 2 20 26 30 53 29 76 31 85 20 85 -6 0 -16 -19 -23 -41 l-12 -42 -14 42
c-14 42 -39 60 -26 19z"/>
<path d="M325 1530 c-20 -22 -14 -67 10 -77 28 -10 64 6 71 33 7 28 -18 64
-46 64 -9 0 -25 -9 -35 -20z m63 -26 c4 -29 -23 -51 -43 -34 -16 13 -20 42 -8
54 14 14 48 1 51 -20z"/>
<path d="M432 1503 l3 -48 38 0 37 -1 0 48 c0 59 -18 64 -22 6 -2 -30 -8 -43
-18 -43 -10 0 -16 13 -18 43 -2 23 -8 42 -13 42 -6 0 -9 -21 -7 -47z"/>
<path d="M580 1547 c0 -2 7 -24 16 -50 16 -48 31 -59 39 -32 16 49 18 50 28
18 14 -47 31 -41 49 18 11 34 13 49 5 46 -7 -2 -17 -21 -22 -42 l-11 -37 -12
41 c-7 22 -16 41 -21 41 -4 0 -13 -19 -18 -42 l-9 -43 -13 43 c-6 23 -16 42
-21 42 -6 0 -10 -1 -10 -3z"/>
<path d="M740 1500 c0 -27 5 -50 10 -50 6 0 10 23 10 50 0 28 -4 50 -10 50 -5
0 -10 -22 -10 -50z"/>
<path d="M944 1525 c-24 -37 -6 -75 35 -75 16 0 33 5 36 10 4 7 -2 9 -17 5
-16 -4 -29 -1 -37 9 -12 14 -9 16 23 16 28 0 36 4 36 18 0 45 -50 56 -76 17z
m56 -5 c0 -5 -12 -10 -26 -10 -14 0 -23 4 -19 10 3 6 15 10 26 10 10 0 19 -4
19 -10z"/>
<path d="M1049 1503 c10 -26 24 -48 31 -48 7 0 20 22 30 48 12 31 14 47 7 44
-6 -2 -16 -18 -21 -35 -5 -18 -12 -32 -16 -32 -4 0 -11 14 -16 32 -5 17 -15
33 -22 36 -9 3 -7 -11 7 -45z"/>
<path d="M1158 1539 c-21 -12 -24 -59 -6 -77 15 -15 64 -16 73 -2 4 6 -6 9
-26 8 -18 -2 -34 2 -36 9 -3 7 9 13 28 15 38 4 47 19 24 42 -19 18 -33 20 -57
5z m47 -19 c4 -6 -5 -10 -19 -10 -14 0 -26 5 -26 10 0 6 9 10 19 10 11 0 23
-4 26 -10z"/>
<path d="M1250 1498 c0 -26 5 -48 10 -48 6 0 10 16 10 36 0 27 5 37 20 41 30
8 24 22 -10 21 -29 -1 -30 -3 -30 -50z"/>
<path d="M1380 1498 c0 -27 5 -48 10 -48 6 0 10 18 10 40 0 33 3 40 20 40 17
0 20 -7 20 -40 0 -22 5 -40 10 -40 6 0 10 18 10 40 0 33 3 40 20 40 17 0 20
-7 20 -40 0 -22 5 -40 10 -40 6 0 10 17 10 39 0 47 -22 71 -50 53 -12 -7 -21
-8 -25 -2 -3 5 -19 8 -35 7 -29 -2 -30 -4 -30 -49z"/>
<path d="M1556 1534 c-19 -18 -21 -55 -4 -72 15 -15 65 -16 74 0 5 8 0 9 -15
5 -26 -6 -51 1 -51 14 0 5 16 9 35 9 27 0 35 4 35 18 0 39 -45 55 -74 26z m54
-14 c0 -5 -12 -10 -26 -10 -14 0 -23 4 -19 10 3 6 15 10 26 10 10 0 19 -4 19
-10z"/>
<path d="M1662 1538 c-7 -7 -12 -24 -12 -38 0 -14 5 -31 12 -38 14 -14 68 -16
68 -3 0 6 -12 9 -26 8 -39 -3 -42 21 -3 25 38 4 47 19 24 42 -19 19 -46 21
-63 4z m53 -18 c4 -6 -5 -10 -19 -10 -14 0 -26 5 -26 10 0 6 9 10 19 10 11 0
23 -4 26 -10z"/>
<path d="M1830 1460 c0 -5 7 -10 15 -10 8 0 15 5 15 10 0 6 -7 10 -15 10 -8 0
-15 -4 -15 -10z"/>
<path d="M2350 1297 c-76 -22 -131 -59 -155 -103 -14 -26 -16 -50 -12 -121 2
-49 9 -98 15 -109 6 -11 11 -38 10 -60 0 -46 27 -129 53 -163 22 -27 25 -94 6
-130 -6 -13 -41 -40 -77 -61 -277 -158 -332 -214 -385 -390 -14 -46 -31 -90
-39 -99 -26 -30 -38 -61 -24 -61 7 0 18 8 23 18 29 53 45 94 65 157 35 114
104 203 200 257 25 14 68 41 97 59 122 79 123 80 123 61 0 -9 9 3 20 27 11 24
20 52 20 62 0 10 5 19 11 19 5 0 7 5 3 11 -3 6 -2 14 5 18 7 5 -1 25 -24 61
-19 30 -35 60 -35 67 0 7 -3 13 -7 13 -5 0 -10 37 -11 83 -2 45 -7 87 -11 92
-10 14 -8 25 17 72 12 24 34 50 49 60 35 23 170 29 218 9 30 -13 36 -22 54
-84 12 -38 21 -82 21 -98 0 -48 14 -60 39 -35 25 25 39 21 35 -11 -1 -13 -3
-30 -3 -38 -1 -12 -5 -10 -17 5 -15 19 -16 19 -9 -11 4 -21 1 -36 -7 -45 -35
-36 -48 -113 -31 -184 5 -22 6 -54 2 -72 -6 -32 -3 -43 13 -43 4 0 6 17 3 37
l-5 36 33 -31 c17 -17 45 -34 60 -38 16 -3 38 -19 49 -35 25 -33 46 -43 63
-29 16 13 100 -39 86 -53 -6 -6 -22 1 -44 17 -35 27 -47 32 -47 18 0 -4 17
-16 37 -27 21 -11 53 -35 71 -54 24 -25 36 -31 44 -23 8 8 5 14 -13 21 -14 5
-31 17 -39 26 -13 15 -12 17 10 13 14 -2 24 -9 22 -16 -1 -8 5 -12 17 -10 11
2 27 -6 36 -17 15 -18 15 -17 0 10 -18 33 -150 115 -245 154 -119 48 -132 65
-134 176 -1 63 2 76 27 112 29 42 58 147 59 214 1 37 -19 77 -67 134 -18 21
-24 24 -19 10 4 -11 19 -33 35 -50 15 -16 30 -43 34 -60 5 -24 4 -27 -5 -13
-6 9 -17 15 -24 12 -9 -3 -17 4 -22 18 -4 13 -16 29 -26 37 -13 9 -18 21 -14
35 7 28 -30 77 -43 58 -6 -11 -14 -8 -36 12 -37 34 -49 33 -74 -9 -13 -22 -28
-35 -41 -35 -12 0 -19 4 -15 9 7 12 -41 -1 -76 -20 -13 -7 -25 -12 -26 -11 -2
1 -6 2 -10 1 -5 -1 -18 0 -30 0 -12 1 -26 -6 -32 -16 -8 -13 -10 -14 -10 -3 1
28 15 54 23 42 12 -19 49 -13 80 12 16 14 35 22 42 19 6 -2 15 1 19 7 4 7 11
8 18 1 8 -6 20 -2 37 12 25 22 31 39 18 53 -5 4 -8 0 -8 -9 0 -21 -36 -42 -46
-26 -5 9 -11 7 -20 -5 -7 -10 -15 -13 -18 -7 -7 10 -54 -10 -65 -28 -3 -5 -20
-13 -36 -17 l-30 -7 20 23 c47 52 201 108 227 82 7 -7 22 -12 34 -12 11 0 35
-5 53 -11 30 -11 31 -12 14 -26 -17 -14 -17 -14 0 -9 13 4 20 0 24 -14 3 -11
9 -20 14 -20 12 0 11 5 -5 43 -12 30 -20 35 -92 53 -78 20 -80 20 -144 1z
m155 -97 c11 -10 29 -20 40 -22 15 -2 19 -10 17 -28 -3 -26 39 -85 52 -73 4 4
4 0 1 -9 -4 -9 -1 -19 6 -24 8 -4 10 -3 5 4 -4 8 -2 10 8 6 8 -3 17 -12 20
-21 5 -11 2 -14 -11 -9 -15 6 -16 5 -5 -5 19 -20 14 -49 -10 -58 -27 -10 -31
-4 -48 85 -16 79 -42 112 -103 127 -47 12 -47 12 -31 35 16 23 24 22 59 -8z
m-265 -65 c0 -8 -9 -19 -20 -25 -23 -12 -25 -8 -8 20 15 24 28 26 28 5z m437
-137 c-3 -8 -6 -5 -6 6 -1 11 2 17 5 13 3 -3 4 -12 1 -19z m128 -516 c-3 -3
-11 0 -18 7 -9 10 -8 11 6 5 10 -3 15 -9 12 -12z"/>
<path d="M2490 1100 c6 -11 13 -20 16 -20 2 0 0 9 -6 20 -6 11 -13 20 -16 20
-2 0 0 -9 6 -20z"/>
<path d="M2440 1104 c0 -6 7 -19 16 -30 14 -18 14 -18 3 6 -14 31 -19 36 -19
24z"/>
<path d="M2420 1086 c0 -8 4 -17 9 -20 5 -4 7 3 4 14 -6 23 -13 26 -13 6z"/>
<path d="M2370 1081 c0 -6 4 -13 10 -16 6 -3 7 1 4 9 -7 18 -14 21 -14 7z"/>
<path d="M2408 1029 c-29 -11 -39 -46 -13 -46 8 0 15 6 15 13 0 18 55 27 80
14 25 -14 37 -8 17 9 -21 17 -69 21 -99 10z"/>
<path d="M2273 998 c-34 -16 -28 -29 8 -16 21 7 34 7 41 0 7 -7 0 -12 -21 -17
-31 -7 -48 -21 -37 -32 4 -4 12 -1 18 5 17 17 33 15 18 -3 -14 -17 -7 -19 19
-5 25 13 33 37 21 61 -12 21 -33 23 -67 7z"/>
<path d="M2419 983 c-1 -5 -1 -11 -1 -14 1 -4 -8 -5 -18 -2 -17 5 -20 1 -19
-28 1 -19 3 -25 6 -14 5 26 56 49 88 41 27 -7 35 8 9 18 -22 8 -64 8 -65 -1z"/>
<path d="M2424 911 c7 -11 -18 -21 -55 -21 -31 0 -39 -14 -13 -24 30 -11 52
-6 68 17 14 20 16 21 26 5 6 -9 17 -24 25 -32 8 -8 15 -22 15 -31 0 -14 -4
-14 -26 4 -15 12 -37 21 -51 21 -34 0 -89 -25 -102 -47 -10 -17 -10 -17 -10 2
0 11 6 31 14 45 17 29 19 50 5 50 -18 0 -42 -60 -35 -90 5 -24 12 -29 50 -34
73 -11 155 12 168 49 7 17 -50 95 -69 95 -9 0 -13 -4 -10 -9z m33 -98 c3 -7
-11 -9 -40 -6 -27 3 -47 1 -51 -6 -11 -16 -36 -14 -30 3 12 31 111 39 121 9z"/>
<path d="M2556 902 c-2 -4 -1 -14 5 -22 7 -12 9 -10 9 8 0 23 -5 28 -14 14z"/>
<path d="M2582 850 c0 -19 2 -27 5 -17 2 9 2 25 0 35 -3 9 -5 1 -5 -18z"/>
<path d="M2521 803 c0 -12 -4 -30 -7 -40 -5 -17 -5 -17 6 0 6 10 9 28 7 40 -4
22 -4 22 -6 0z"/>
<path d="M2392 738 c-6 -8 -9 -17 -6 -20 8 -9 44 3 44 14 0 5 -4 7 -9 4 -5 -4
-11 -1 -13 5 -2 7 -8 6 -16 -3z"/>
<path d="M2450 719 c0 -5 5 -7 10 -4 6 3 10 8 10 11 0 2 -4 4 -10 4 -5 0 -10
-5 -10 -11z"/>
<path d="M2526 689 c-16 -16 -24 -29 -19 -29 13 0 53 38 53 50 0 13 0 13 -34
-21z"/>
<path d="M2366 662 c-12 -19 39 -122 60 -122 13 0 34 21 34 34 0 6 -4 5 -9 -3
-6 -9 -16 -11 -27 -6 -18 7 -18 8 1 15 13 6 15 9 5 9 -14 1 -46 39 -38 46 2 1
13 6 26 9 17 6 22 3 23 -11 0 -16 1 -16 8 2 5 11 7 23 4 28 -6 10 -81 9 -87
-1z"/>
<path d="M2310 642 c0 -5 7 -13 16 -16 10 -4 14 -1 12 6 -5 15 -28 23 -28 10z"/>
<path d="M2620 534 c0 -41 -32 -96 -68 -117 -34 -20 -127 -27 -177 -14 l-29 8
19 -21 c11 -12 21 -17 23 -12 4 13 53 2 59 -14 2 -7 11 -10 19 -7 8 3 11 10 8
15 -5 7 9 8 42 3 43 -6 47 -5 35 9 -8 9 -9 16 -4 16 5 0 20 10 33 23 14 12 28
21 33 19 5 -1 6 1 3 6 -3 5 2 28 11 51 12 32 14 44 5 53 -9 9 -12 5 -12 -18z"/>
<path d="M2682 500 c0 -14 2 -19 5 -12 2 6 2 18 0 25 -3 6 -5 1 -5 -13z"/>
<path d="M2430 483 c0 -24 7 -33 35 -46 l34 -16 -11 27 c-17 37 -18 38 -29 22
-9 -13 -10 -12 -6 2 3 9 -1 22 -9 28 -12 10 -14 8 -14 -17z"/>
<path d="M2700 506 c0 -4 7 -21 16 -37 8 -17 16 -52 16 -80 1 -32 6 -49 14
-49 8 0 11 12 10 33 -2 17 -4 41 -5 53 -1 18 -51 97 -51 80z"/>
<path d="M2368 455 c-6 -31 -6 -31 62 -38 l55 -6 -52 11 c-40 8 -53 15 -53 29
0 9 6 20 13 22 7 4 6 6 -4 6 -10 1 -19 -9 -21 -24z"/>
<path d="M2661 439 c-14 -39 -14 -42 -1 -34 6 3 10 -3 10 -14 0 -12 -6 -21
-14 -21 -8 0 -17 -7 -20 -16 -10 -26 -2 -26 21 -1 13 13 22 38 24 64 4 53 -5
64 -20 22z"/>
<path d="M2790 346 c0 -37 23 -156 31 -156 4 0 5 -8 2 -19 -3 -10 0 -22 6 -25
15 -10 14 14 -7 116 -17 83 -32 122 -32 84z"/>
<path d="M2338 343 c7 -3 16 -2 19 1 4 3 -2 6 -13 5 -11 0 -14 -3 -6 -6z"/>
<path d="M2528 343 c7 -3 16 -2 19 1 4 3 -2 6 -13 5 -11 0 -14 -3 -6 -6z"/>
<path d="M2850 341 c0 -5 9 -7 20 -4 11 3 20 7 20 9 0 2 -9 4 -20 4 -11 0 -20
-4 -20 -9z"/>
<path d="M2960 336 c0 -2 8 -10 18 -17 15 -13 16 -12 3 4 -13 16 -21 21 -21
13z"/>
<path d="M2717 318 c4 -7 7 -26 6 -43 -2 -28 -2 -28 7 5 9 36 6 50 -11 50 -6
0 -7 -6 -2 -12z"/>
<path d="M2055 290 c3 -5 8 -10 11 -10 2 0 4 5 4 10 0 6 -5 10 -11 10 -5 0 -7
-4 -4 -10z"/>
<path d="M2074 254 c3 -9 6 -28 6 -42 1 -22 2 -24 10 -10 10 16 -2 68 -16 68
-3 0 -3 -7 0 -16z"/>
<path d="M2874 245 c-4 -8 -1 -21 5 -29 6 -7 7 -16 3 -20 -9 -10 -9 -196 1
-196 4 0 7 3 7 8 1 4 5 27 10 52 5 28 5 49 -2 57 -5 7 -6 22 -2 35 10 30 5 71
-10 80 -8 6 -8 8 2 8 6 0 12 5 12 10 0 16 -20 12 -26 -5z"/>
<path d="M2961 229 c-18 -40 -7 -49 13 -10 18 34 19 41 8 41 -4 0 -13 -14 -21
-31z"/>
<path d="M2710 231 c0 -6 5 -13 10 -16 6 -3 10 1 10 9 0 9 -4 16 -10 16 -5 0
-10 -4 -10 -9z"/>
<path d="M2038 225 c-3 -6 -3 -26 1 -45 4 -21 9 -29 12 -20 7 20 -5 78 -13 65z"/>
<path d="M2985 175 c-7 -21 -38 -88 -53 -115 -33 -58 -33 -60 -7 -58 13 1 22
4 20 7 -3 2 4 16 15 31 21 29 45 122 37 143 -3 7 -7 4 -12 -8z"/>
<path d="M2056 142 c-3 -5 -1 -23 4 -38 5 -16 9 -36 8 -44 -3 -38 3 -60 17
-60 18 0 18 9 0 83 -15 64 -20 74 -29 59z"/>
<path d="M2900 135 c0 -8 4 -15 10 -15 5 0 7 7 4 15 -4 8 -8 15 -10 15 -2 0
-4 -7 -4 -15z"/>
<path d="M1868 65 c6 -32 12 -32 12 0 0 14 -4 25 -9 25 -4 0 -6 -11 -3 -25z"/>
</g>
</svg>
