<?xml version="1.0" standalone="no"?>
<!DOCTYPE svg PUBLIC "-//W3C//DTD SVG 20010904//EN"
 "http://www.w3.org/TR/2001/REC-SVG-20010904/DTD/svg10.dtd">
<svg version="1.0" xmlns="http://www.w3.org/2000/svg"
 width="300.000000pt" height="146.000000pt" viewBox="0 0 300.000000 146.000000"
 preserveAspectRatio="xMidYMid meet">
<metadata>
Created by potrace 1.10, written by Peter Selinger 2001-2011
</metadata>
<g transform="translate(0.000000,146.000000) scale(0.100000,-0.100000)"
fill="#000000" stroke="none">
<path d="M1173 1440 c-11 -11 -26 -33 -34 -48 -23 -45 -103 -119 -136 -126
-42 -10 -58 -29 -44 -55 16 -29 14 -34 -26 -76 -21 -21 -38 -49 -38 -61 -1
-13 -7 -30 -14 -38 -11 -13 -11 -16 1 -16 13 0 38 40 53 85 4 14 8 16 14 7 6
-9 12 -7 26 8 19 21 8 29 -13 8 -9 -9 -12 -9 -12 0 0 7 7 15 15 18 8 4 12 10
9 15 -3 5 0 9 5 9 6 0 11 -7 11 -15 0 -8 5 -15 10 -15 6 0 10 8 10 19 0 10 11
26 24 34 22 15 25 15 30 0 5 -11 -3 -24 -21 -40 -52 -42 -54 -45 -51 -55 2 -5
8 -8 13 -6 6 2 9 6 8 11 -2 4 6 7 17 7 20 0 60 63 60 93 0 19 71 73 90 69 9
-2 11 0 4 5 -12 9 -14 53 -2 53 4 0 5 7 1 16 -5 13 -9 11 -22 -9 -9 -13 -21
-22 -28 -20 -7 3 -15 -8 -19 -24 -4 -15 -13 -37 -20 -48 -8 -11 -14 -29 -14
-40 -1 -19 -1 -19 -11 -2 -8 14 -7 24 6 43 9 13 13 30 9 36 -4 7 -3 8 4 4 8
-5 12 0 12 14 0 11 7 23 15 26 8 4 13 10 10 14 -3 4 5 10 18 14 18 5 20 8 7
16 -9 6 -10 10 -3 10 13 0 58 68 50 76 -3 3 -14 -4 -24 -16z m-33 -160 c-6
-11 -12 -20 -14 -20 -2 0 -2 9 1 20 3 11 9 20 15 20 5 0 4 -9 -2 -20z m-84
-15 c-15 -15 -20 -29 -17 -47 0 -5 -6 -8 -14 -8 -8 0 -15 -5 -15 -11 0 -22
-35 -3 -36 19 -1 18 3 23 17 19 10 -3 16 0 13 7 -2 6 11 18 29 26 38 19 45 17
23 -5z"/>
<path d="M1219 1438 c-7 -13 -19 -33 -27 -45 -23 -36 -6 -27 42 22 42 42 43
45 21 45 -15 0 -29 -9 -36 -22z"/>
<path d="M1294 1446 c-10 -8 -17 -17 -14 -19 3 -3 16 3 29 14 27 22 15 26 -15
5z"/>
<path d="M1388 1455 c-3 -3 -16 -8 -29 -10 -13 -2 -39 -20 -57 -40 -18 -19
-38 -35 -44 -35 -9 0 -9 3 0 12 7 7 12 16 12 22 0 5 -8 1 -19 -10 -10 -10 -16
-25 -13 -31 2 -7 -1 -13 -7 -13 -6 0 -11 -18 -11 -41 0 -42 -17 -69 -44 -69
-9 0 -16 -4 -16 -10 0 -5 -3 -9 -7 -9 -21 3 -20 -3 2 -26 14 -13 25 -30 25
-37 -1 -16 -35 -58 -47 -58 -20 0 -56 -49 -50 -70 3 -13 0 -20 -9 -20 -21 0
-17 -17 6 -23 20 -5 25 8 23 60 -1 7 3 10 8 7 5 -3 9 -1 9 5 0 5 9 13 20 16
11 3 20 11 20 16 0 5 9 18 19 28 16 16 18 26 11 51 -8 29 -6 35 26 64 32 29
34 35 24 60 -9 25 -8 27 6 22 14 -5 15 -4 5 8 -10 12 -8 17 11 27 13 6 34 21
47 33 l24 21 -12 -22 c-6 -12 -16 -25 -21 -28 -6 -4 -4 -17 5 -36 20 -39 27
-37 19 5 -5 31 -1 39 37 80 23 26 40 49 37 51 -3 3 -7 3 -10 0z"/>
<path d="M1412 1430 l-22 -30 25 12 c14 6 25 19 25 30 0 24 -2 23 -28 -12z"/>
<path d="M1493 1450 c1 -3 -7 -22 -17 -42 -17 -31 -17 -38 -5 -67 8 -17 17
-31 21 -31 5 0 8 -9 8 -20 0 -15 7 -20 26 -20 28 0 89 -53 80 -69 -6 -9 45
-34 71 -35 16 -1 44 -41 41 -58 -2 -7 3 -12 10 -10 6 1 12 -5 12 -14 0 -8 -4
-12 -10 -9 -5 3 -10 1 -10 -4 0 -14 11 -13 32 3 17 12 17 14 -2 31 -11 10 -20
22 -20 27 0 16 -51 121 -56 116 -2 -3 0 -17 6 -32 11 -29 5 -50 -11 -40 -5 3
-7 9 -4 14 3 5 1 11 -5 15 -5 3 -10 17 -10 30 0 13 -3 31 -6 40 -7 16 -63 51
-77 47 -5 -1 -5 2 -2 8 4 7 -3 22 -15 35 -12 13 -20 30 -17 37 2 7 0 22 -6 33
-9 18 -9 19 6 6 10 -7 17 -19 17 -26 0 -7 7 -18 15 -25 8 -6 14 -15 13 -18 -4
-12 22 -52 33 -52 17 0 99 -84 99 -101 0 -9 7 -22 15 -29 8 -7 15 -19 15 -27
0 -7 7 -16 15 -19 8 -4 12 -10 9 -15 -3 -5 0 -9 7 -9 7 0 9 -3 6 -7 -4 -3 -2
-12 4 -20 9 -10 8 -13 -2 -13 -10 -1 -8 -4 4 -11 19 -11 50 -76 42 -89 -3 -5
0 -21 7 -37 14 -35 15 -39 17 -62 0 -11 8 -26 16 -35 13 -13 13 -16 -1 -30 -8
-9 -12 -21 -9 -27 4 -5 -1 -17 -11 -25 -12 -10 -13 -13 -4 -10 8 3 23 9 33 12
19 7 22 20 7 29 -10 6 -2 35 10 35 12 0 18 -57 8 -74 -5 -9 -19 -16 -31 -17
-13 0 -16 -3 -9 -6 8 -3 25 0 38 7 21 12 23 18 19 76 -3 59 -30 121 -57 132
-4 2 -8 10 -8 17 0 21 -33 88 -50 102 -9 8 -11 12 -3 13 22 0 43 -12 43 -26 0
-17 17 -18 23 -1 4 9 8 9 15 -2 5 -7 14 -11 20 -7 16 10 37 -23 24 -36 -9 -9
-12 -7 -12 8 0 13 -7 19 -25 20 l-26 2 26 -24 c14 -13 39 -31 55 -39 16 -8 31
-23 33 -32 8 -33 7 -124 -1 -141 -5 -10 -4 -26 3 -40 10 -18 14 -20 18 -8 3 8
2 18 -3 21 -6 4 -8 16 -5 28 2 12 7 64 9 115 l5 92 -34 14 c-18 8 -37 21 -42
30 -4 8 -24 16 -43 18 -19 1 -48 7 -64 14 -26 10 -27 12 -7 17 12 3 21 2 21
-2 0 -4 6 -8 13 -8 6 0 26 -4 42 -8 l30 -8 -27 22 c-15 12 -37 24 -48 26 -11
2 -26 7 -33 11 -8 5 -8 2 2 -9 8 -11 9 -17 3 -17 -6 0 -16 9 -22 20 -6 11 -17
20 -25 20 -8 0 -15 4 -15 10 0 10 31 1 71 -20 18 -10 24 -4 20 23 -3 18 19 4
48 -31 27 -33 83 -67 144 -86 9 -3 21 -16 27 -30 5 -13 13 -25 17 -27 5 -2 19
-19 32 -36 12 -18 27 -33 32 -33 11 0 -26 56 -53 81 -10 9 -18 23 -18 32 0 9
-15 20 -36 27 -22 8 -34 17 -30 25 3 8 -3 19 -12 27 -11 9 -14 10 -8 1 11 -19
-4 -16 -28 6 -72 67 -146 148 -146 162 0 9 -13 28 -30 42 -32 29 -37 46 -19
64 9 9 6 10 -11 6 -16 -4 -21 -3 -16 5 5 8 1 10 -9 5 -15 -5 -15 -3 -4 16 16
25 29 27 29 6 0 -8 7 -15 16 -15 12 0 15 -6 10 -25 -4 -15 -2 -25 4 -25 7 0
10 14 8 33 -2 20 -8 31 -16 29 -8 -1 -11 2 -7 8 7 11 5 11 -35 15 -14 1 -45 5
-70 9 -42 7 -44 6 -25 -8 11 -8 36 -16 55 -16 22 0 31 -3 24 -10 -6 -6 -22 -6
-44 0 -32 9 -33 8 -16 -5 11 -8 27 -15 36 -15 21 0 40 -20 40 -42 0 -9 7 -21
16 -26 11 -6 17 -24 18 -53 1 -40 31 -99 49 -99 9 0 0 37 -16 62 -17 27 -34
92 -17 68 5 -8 10 -21 10 -29 0 -8 9 -24 19 -35 17 -19 36 -96 24 -96 -3 0
-20 9 -37 19 -30 19 -35 21 -56 21 -14 0 -13 37 1 42 7 2 5 9 -5 17 -14 12
-16 11 -10 -5 6 -15 4 -17 -6 -7 -8 7 -14 29 -15 50 -1 20 -7 39 -14 41 -6 2
-11 16 -11 30 0 19 -9 32 -30 44 -35 20 -37 14 -10 -27 25 -37 26 -52 3 -34
-16 13 -17 12 -4 -3 9 -13 10 -18 2 -18 -7 0 -17 13 -22 30 -6 17 -16 28 -22
24 -7 -3 -5 0 4 8 21 18 10 59 -19 69 -24 9 -29 0 -11 -18 6 -6 8 -17 4 -24
-5 -8 -12 -2 -20 17 -8 21 -18 29 -38 29 -14 1 -25 -2 -24 -5z m20 -38 c-2
-11 6 -32 22 -50 14 -17 22 -33 17 -36 -12 -7 -35 10 -28 22 3 6 3 13 -2 16
-5 3 -8 -8 -8 -24 0 -19 4 -26 13 -23 7 3 13 1 13 -5 0 -13 -30 -24 -31 -12
-3 19 -5 25 -17 47 -10 19 -10 28 3 53 18 34 25 39 18 12z m178 -99 c12 -14
12 -15 0 -9 -10 7 -12 3 -6 -15 l6 -24 -20 25 c-19 23 -19 40 -2 40 5 0 15 -8
22 -17z m-66 -42 c2 -4 6 -20 9 -35 5 -28 5 -28 -15 -10 -11 10 -17 24 -14 31
2 8 1 12 -4 8 -5 -3 -15 1 -23 8 -7 8 -18 12 -25 10 -7 -3 -9 3 -6 16 5 19 5
19 39 -1 19 -11 36 -23 39 -27z m358 -288 c5 -28 5 -28 -12 -7 -9 11 -22 19
-29 16 -6 -2 -12 1 -12 7 0 6 11 11 24 11 18 0 25 -7 29 -27z m-98 -93 c17
-34 18 -40 6 -40 -5 0 -11 8 -14 18 -2 9 -8 25 -12 35 -12 28 3 19 20 -13z"/>
<path d="M1783 1444 c26 -14 28 -19 22 -51 -3 -19 -9 -41 -12 -49 -3 -9 7 -19
31 -29 20 -8 36 -20 36 -26 0 -6 14 -24 32 -41 23 -21 28 -32 19 -37 -9 -6 -8
-11 4 -21 17 -14 17 -14 20 18 1 13 -4 26 -11 29 -7 2 -11 10 -8 16 2 7 -1 19
-6 27 -9 13 -11 13 -20 0 -7 -11 -10 -12 -10 -2 0 8 -10 22 -21 31 -15 12 -23
31 -25 60 -3 53 -27 91 -57 91 -20 -1 -20 -2 6 -16z"/>
<path d="M1827 1449 c7 -7 22 -13 33 -14 26 -2 13 10 -20 20 -20 6 -23 5 -13
-6z"/>
<path d="M1455 1430 c-4 -11 -30 -31 -61 -46 -30 -14 -54 -30 -54 -35 0 -5 15
-15 33 -23 31 -12 33 -16 29 -52 -3 -21 -10 -48 -17 -59 -7 -11 -16 -33 -20
-50 -3 -16 -18 -42 -31 -56 -20 -21 -23 -30 -15 -50 9 -25 38 -55 45 -48 2 2
7 22 11 44 4 26 3 35 -3 27 -7 -11 -10 -9 -15 7 -3 12 1 22 10 25 8 3 12 9 9
14 -2 4 -1 23 4 42 6 29 8 31 9 10 1 -22 3 -23 12 -8 8 14 15 15 35 8 33 -13
47 -13 39 0 -3 6 -15 10 -26 10 -11 0 -18 4 -15 8 7 11 66 3 66 -9 0 -5 -10
-17 -21 -27 -36 -29 -49 -43 -49 -52 0 -5 18 9 39 31 22 21 43 34 46 29 8 -12
-19 -53 -28 -43 -4 3 -7 2 -7 -4 0 -23 15 -21 32 4 12 18 18 22 18 12 0 -9 9
-26 20 -39 13 -15 18 -31 14 -43 -4 -13 -2 -17 5 -13 10 6 15 -6 12 -26 0 -5
4 -8 10 -8 6 0 9 -7 5 -15 -3 -8 -1 -15 4 -15 6 0 10 2 10 4 0 2 3 12 7 22 5
13 3 15 -7 9 -9 -5 -11 -4 -6 3 4 7 11 12 17 12 12 0 12 -47 -1 -55 -6 -4 -8
-15 -5 -26 5 -14 -4 -25 -39 -46 -47 -28 -62 -48 -46 -58 6 -4 10 1 10 9 0 20
53 48 77 40 14 -5 15 -4 4 4 -16 12 -4 35 15 28 11 -4 11 0 2 20 -9 19 -9 27
1 37 9 9 14 9 21 -3 13 -21 12 -33 -2 -24 -7 4 -8 3 -4 -4 4 -6 13 -9 21 -5
18 6 20 -13 3 -20 -10 -4 -10 -8 1 -15 7 -5 11 -14 7 -20 -3 -6 -1 -12 4 -14
6 -2 3 -12 -7 -23 -26 -29 -79 -102 -63 -87 8 6 18 12 24 12 5 0 1 -6 -9 -14
-10 -7 -27 -11 -38 -8 -14 3 -18 1 -13 -6 5 -8 -1 -12 -16 -13 -23 -1 -23 -1
2 -10 20 -6 15 -8 -25 -7 -68 1 -77 -1 -70 -11 3 -6 -15 -13 -39 -16 -25 -4
-50 -13 -56 -20 -12 -15 5 -11 83 17 17 6 51 12 74 14 47 2 66 11 57 25 -3 6
5 8 21 5 15 -3 25 -2 21 1 -3 3 1 11 9 17 7 6 15 18 17 26 4 20 21 39 31 33 4
-2 7 4 7 13 0 10 7 26 17 36 15 17 15 19 -1 37 -9 10 -14 25 -10 34 8 21 -51
92 -89 108 -17 7 -26 17 -23 25 3 7 -5 21 -17 32 -12 10 -29 32 -39 49 -14 27
-14 32 -2 37 16 6 19 26 3 26 -5 0 -7 -4 -4 -10 3 -5 3 -10 0 -10 -3 0 -10 12
-16 28 -5 15 -23 35 -41 45 -22 13 -28 21 -20 29 11 11 5 36 -14 55 -15 16 -8
47 17 69 20 18 25 34 10 34 -5 0 -13 -9 -16 -20z m-49 -69 c-4 -5 0 -11 6 -14
7 -2 10 -8 6 -12 -5 -5 -20 -2 -35 5 -26 12 -27 13 -8 21 27 11 37 11 31 0z
m34 -47 c0 -8 -5 -12 -10 -9 -6 4 -8 11 -5 16 9 14 15 11 15 -7z m5 -44 c3
-11 3 -25 0 -30 -4 -7 3 -8 21 -4 18 5 25 3 20 -4 -3 -6 0 -13 6 -16 7 -3 -1
-3 -19 0 -17 3 -34 0 -38 -5 -10 -17 -35 -13 -35 5 0 9 6 14 13 11 10 -4 13 5
12 29 -1 37 10 45 20 14z m-85 -225 c0 -18 -1 -18 -16 3 -8 12 -12 27 -8 33 8
14 24 -8 24 -36z"/>
<path d="M1862 1369 c1 -30 4 -36 20 -31 16 4 17 7 5 21 -8 9 -17 23 -20 31
-3 8 -5 -1 -5 -21z"/>
<path d="M1057 1364 c3 -8 -5 -23 -18 -34 l-24 -19 25 -1 c18 0 21 3 11 9 -11
7 -9 10 8 16 12 3 19 10 16 15 -3 5 0 10 7 12 7 3 3 7 -9 10 -16 4 -20 2 -16
-8z"/>
<path d="M1700 1369 c0 -7 10 -33 22 -58 20 -41 23 -43 26 -22 2 15 -3 28 -12
33 -9 5 -16 18 -16 28 0 10 -4 22 -10 25 -5 3 -10 1 -10 -6z"/>
<path d="M1890 1320 c-8 -5 -13 -10 -10 -11 3 0 13 -2 23 -4 9 -2 17 3 17 11
0 16 -9 18 -30 4z"/>
<path d="M937 1261 c-9 -28 -14 -58 -11 -65 6 -15 -20 -46 -51 -63 -10 -6 -18
-23 -19 -42 0 -17 -4 -31 -8 -31 -5 0 -8 -6 -8 -12 0 -7 -9 -24 -19 -37 -18
-24 -85 -42 -150 -41 -13 0 -29 -4 -35 -9 -6 -5 -22 -11 -36 -13 -22 -4 -23
-5 -7 -13 11 -4 28 -3 42 5 13 7 57 13 99 14 41 0 71 2 66 4 -5 2 4 15 20 29
17 13 30 31 30 39 0 8 5 14 10 14 6 0 10 14 10 31 0 23 10 42 40 71 32 33 38
44 34 68 -7 32 10 70 31 70 8 0 15 5 15 11 0 6 -6 9 -14 6 -8 -3 -16 -1 -18 5
-2 6 -11 -12 -21 -41z"/>
<path d="M908 1293 c7 -3 16 -2 19 1 4 3 -2 6 -13 5 -11 0 -14 -3 -6 -6z"/>
<path d="M1351 1283 c7 -10 15 -20 16 -22 2 -2 3 5 3 17 0 14 -6 22 -16 22
-14 0 -15 -3 -3 -17z"/>
<path d="M1821 1284 c0 -11 3 -14 6 -6 3 7 2 16 -1 19 -3 4 -6 -2 -5 -13z"/>
<path d="M1310 1261 c0 -19 -10 -26 -32 -22 -10 1 -10 -16 0 -22 9 -6 52 28
52 42 0 5 -4 13 -10 16 -5 3 -10 -3 -10 -14z"/>
<path d="M1862 1244 c10 -10 20 -15 24 -12 3 4 -5 12 -18 18 -22 12 -22 12 -6
-6z"/>
<path d="M1348 1231 c-7 -12 -17 -21 -21 -21 -13 0 -46 -43 -47 -59 0 -8 -7
-23 -17 -33 -9 -11 -11 -18 -5 -18 7 0 12 4 12 8 0 4 14 13 30 19 26 10 30 15
24 37 -5 20 -3 25 8 21 9 -3 18 6 26 27 14 38 9 49 -10 19z"/>
<path d="M1564 1208 c4 -13 8 -28 10 -35 2 -12 49 -53 59 -53 3 0 8 8 10 18 3
10 5 7 6 -10 0 -15 9 -31 18 -37 14 -7 15 -12 4 -25 -11 -13 -4 -24 46 -73 51
-51 94 -83 111 -83 3 0 -2 8 -11 18 -10 10 -14 21 -11 25 4 3 -18 30 -47 58
-30 29 -53 57 -51 62 1 5 -9 18 -23 28 -13 11 -24 25 -22 31 1 6 -16 20 -38
32 -25 13 -41 29 -43 44 -2 12 -8 22 -14 22 -6 0 -8 -9 -4 -22z m216 -233 c13
-14 19 -25 14 -25 -12 0 -59 50 -47 50 5 0 20 -11 33 -25z"/>
<path d="M1110 1215 c-1 -5 -1 -22 0 -37 1 -18 -5 -30 -19 -38 -12 -6 -21 -16
-21 -23 0 -18 -65 -58 -83 -51 -10 3 -24 -4 -38 -20 -12 -14 -46 -37 -75 -52
-65 -33 -65 -42 0 -14 26 11 54 20 62 20 8 0 17 7 20 15 6 15 58 45 80 45 7 0
21 14 31 30 9 17 21 30 25 30 20 0 37 46 29 75 -5 17 -10 26 -11 20z"/>
<path d="M1257 1193 c-4 -3 -7 -13 -7 -22 1 -13 3 -13 11 2 11 19 8 33 -4 20z"/>
<path d="M1936 1181 c-9 -15 -11 -13 39 -40 22 -12 51 -28 65 -36 14 -8 54
-27 90 -41 68 -29 110 -59 110 -79 0 -7 10 -25 22 -40 12 -15 23 -42 25 -59 2
-19 17 -43 38 -64 19 -19 32 -38 29 -44 -3 -5 -1 -15 6 -23 8 -10 9 -19 0 -35
-9 -17 -6 -27 20 -60 l30 -38 -16 -42 -17 -41 34 -29 c36 -31 60 -40 39 -15
-6 8 -8 20 -4 26 4 7 3 9 -4 6 -5 -4 -20 -3 -32 1 -21 8 -21 10 -6 24 9 9 13
24 10 35 -5 17 -5 17 9 0 8 -10 18 -14 21 -9 3 6 -1 13 -10 16 -10 4 -14 14
-11 26 3 11 1 18 -3 15 -5 -3 -11 4 -15 15 -3 11 -11 20 -16 20 -6 0 -9 16 -8
34 2 19 0 38 -4 42 -4 4 -7 17 -7 29 0 12 -9 32 -20 45 -11 13 -20 27 -20 32
0 5 -4 6 -10 3 -5 -3 -10 2 -10 13 0 10 -3 22 -7 25 -3 4 -8 19 -9 33 -4 39
-13 56 -24 49 -5 -3 -14 5 -19 18 -5 13 -17 31 -26 40 -9 10 -12 17 -6 17 6 0
11 8 11 18 -1 16 -1 16 -11 0 -12 -22 -38 -23 -45 -3 -4 8 -10 13 -14 10 -5
-3 -11 -1 -15 5 -3 5 -14 10 -24 10 -29 0 -71 38 -65 58 5 14 4 14 -4 3 -9
-12 -13 -12 -26 -2 -9 7 -23 10 -32 7 -10 -4 -23 2 -33 16 -13 15 -20 18 -25
9z m88 -40 c4 -5 -3 -7 -14 -4 -23 6 -26 13 -6 13 8 0 17 -4 20 -9z"/>
<path d="M1143 1155 c-9 -24 1 -27 15 -5 8 13 8 20 2 20 -6 0 -13 -7 -17 -15z"/>
<path d="M1221 1154 c8 -10 9 -18 3 -22 -6 -4 -20 -22 -33 -39 -16 -23 -20
-37 -13 -49 8 -14 10 -12 16 10 3 14 20 41 37 61 23 26 27 35 15 35 -9 0 -16
5 -16 10 0 6 -5 10 -11 10 -8 0 -7 -5 2 -16z"/>
<path d="M1406 1135 c4 -8 2 -15 -3 -15 -5 0 -10 -21 -10 -47 0 -32 1 -37 4
-15 2 18 8 30 12 28 4 -3 8 11 8 30 1 19 -3 34 -8 34 -4 0 -6 -7 -3 -15z"/>
<path d="M1560 1141 c0 -5 7 -11 15 -15 8 -3 15 -1 15 3 0 5 -7 11 -15 15 -8
3 -15 1 -15 -3z"/>
<path d="M822 1110 c0 -14 2 -19 5 -12 2 6 2 18 0 25 -3 6 -5 1 -5 -13z"/>
<path d="M1280 1101 c0 -6 -5 -11 -11 -11 -13 0 -39 -25 -39 -38 0 -5 9 -17
21 -28 20 -18 20 -18 14 9 -4 15 -3 27 2 27 14 0 34 38 23 45 -6 3 -10 1 -10
-4z"/>
<path d="M1455 1091 c-3 -5 -1 -12 5 -16 5 -3 10 1 10 9 0 18 -6 21 -15 7z"/>
<path d="M1630 1092 c0 -12 19 -26 26 -19 2 2 -2 10 -11 17 -9 8 -15 8 -15 2z"/>
<path d="M2010 1085 c0 -3 18 -12 41 -21 26 -11 38 -21 35 -30 -3 -8 -2 -14 2
-14 10 0 72 -87 72 -101 0 -6 6 -9 14 -6 19 8 9 -27 -14 -48 -10 -9 -16 -24
-13 -36 3 -10 0 -19 -6 -19 -6 0 -11 -9 -11 -20 0 -43 19 -19 50 64 9 23 13
26 25 16 27 -22 10 -95 -19 -84 -7 3 -19 -3 -27 -12 -11 -14 -11 -18 3 -28 15
-11 14 -14 -12 -29 -33 -20 -53 -22 -28 -4 19 15 18 52 -3 52 -8 0 -14 -10
-14 -24 0 -13 -6 -26 -13 -29 -11 -3 -12 0 -3 17 10 17 9 21 -5 21 -13 0 -15
-6 -11 -29 6 -30 -7 -51 -33 -51 -9 0 -22 -11 -28 -25 -6 -14 -16 -25 -22 -25
-6 0 -8 5 -5 10 3 6 2 10 -4 10 -5 0 -13 -4 -16 -10 -3 -5 -2 -10 4 -10 6 0 8
-7 5 -15 -5 -13 -2 -13 24 1 17 8 32 20 35 27 3 6 41 30 86 52 44 22 81 45 81
51 0 6 9 23 20 36 31 40 10 131 -37 161 -19 12 -55 67 -44 67 5 0 13 -9 16
-20 6 -20 52 -57 60 -48 2 2 -10 18 -26 36 -17 18 -28 39 -25 47 3 9 -3 19
-14 25 -14 7 -20 7 -20 0 0 -5 8 -10 17 -10 13 0 14 -3 5 -12 -13 -13 -42 5
-42 27 0 7 -19 20 -43 29 -45 17 -57 19 -57 11z m174 -320 c-4 -8 -10 -15 -15
-15 -4 0 -6 7 -3 15 4 8 10 15 15 15 4 0 6 -7 3 -15z"/>
<path d="M1750 1061 c0 -4 16 -25 35 -45 39 -42 43 -40 19 7 -21 40 -54 64
-54 38z"/>
<path d="M1949 1050 c31 -26 51 -26 21 0 -13 11 -28 20 -34 20 -6 -1 0 -10 13
-20z"/>
<path d="M1023 1040 c-13 -5 -24 -15 -25 -22 -3 -29 -4 -34 -16 -56 -7 -12
-10 -28 -6 -34 5 -7 3 -8 -6 -3 -10 6 -12 4 -7 -8 4 -12 2 -14 -10 -10 -11 4
-14 2 -11 -8 3 -8 -1 -26 -8 -41 -10 -18 -11 -34 -5 -50 6 -13 10 -18 11 -13
1 6 5 1 10 -10 12 -28 12 -73 0 -80 -14 -8 -50 13 -50 30 0 7 -5 15 -11 17 -9
3 -9 9 0 25 6 13 7 24 2 27 -13 9 -8 32 14 56 22 25 13 39 -11 15 -10 -9 -18
-31 -18 -48 -1 -18 -5 -38 -9 -44 -9 -15 26 -66 62 -89 23 -16 25 -15 42 7 21
27 24 39 9 39 -5 0 -10 11 -10 24 0 14 -4 28 -10 31 -19 12 -10 51 21 93 16
22 29 42 27 44 -6 7 33 88 42 88 5 0 10 7 10 15 0 17 -5 18 -37 5z"/>
<path d="M1280 1040 c0 -5 5 -10 10 -10 6 0 10 5 10 10 0 6 -4 10 -10 10 -5 0
-10 -4 -10 -10z"/>
<path d="M1420 1029 c0 -11 4 -18 10 -14 5 3 7 12 3 20 -7 21 -13 19 -13 -6z"/>
<path d="M2000 1029 c0 -5 7 -9 15 -9 18 0 20 -21 3 -39 -11 -11 -10 -13 2 -9
8 3 16 16 18 30 2 19 -2 27 -17 31 -12 3 -21 1 -21 -4z"/>
<path d="M1200 1004 c0 -22 2 -24 14 -14 8 6 12 18 9 26 -9 23 -23 16 -23 -12z"/>
<path d="M1840 1021 c0 -6 7 -14 15 -17 8 -4 15 -17 15 -30 0 -12 6 -27 14
-31 24 -14 43 -67 45 -129 2 -73 -14 -92 -86 -105 -33 -6 -54 -17 -66 -34 -10
-14 -25 -25 -33 -25 -20 0 -33 -40 -23 -67 13 -34 -6 -71 -44 -87 -19 -8 -38
-19 -41 -25 -4 -5 -13 -8 -21 -5 -8 4 -12 11 -8 18 4 6 -1 5 -10 -3 -10 -8
-20 -11 -23 -8 -9 9 28 45 59 56 15 6 27 16 27 23 0 9 -3 9 -11 -2 -8 -12 -9
-8 -4 13 5 26 4 27 -15 17 -22 -12 -27 -30 -8 -30 6 0 9 -2 6 -5 -3 -4 -18 -3
-32 1 -27 6 -27 7 -6 21 11 8 18 18 16 22 -3 4 9 8 27 7 21 -1 31 -6 29 -14
-1 -8 2 -11 8 -7 6 3 8 11 4 16 -8 14 4 59 16 59 6 0 8 -11 4 -27 -4 -16 -4
-25 0 -22 9 9 16 69 7 69 -3 0 -31 -16 -61 -35 -30 -19 -57 -35 -61 -35 -4 0
-12 -14 -19 -30 -7 -17 -21 -37 -31 -44 -16 -11 -17 -17 -8 -45 10 -27 13 -30
27 -19 12 11 16 11 20 0 3 -10 7 -10 20 0 14 12 14 11 2 -9 -10 -15 -18 -19
-26 -12 -8 6 -14 4 -18 -7 -4 -12 -2 -15 9 -10 8 3 15 1 15 -5 0 -6 11 3 25
18 13 15 25 22 25 15 0 -7 -7 -15 -15 -18 -8 -4 -15 -12 -15 -18 0 -7 -11 -18
-23 -23 -20 -9 -24 -19 -26 -64 -1 -29 -7 -57 -14 -61 -9 -6 -9 -8 1 -8 9 0
11 -7 7 -19 -3 -11 0 -23 6 -27 9 -5 10 -2 5 11 -5 15 -4 16 8 6 8 -7 19 -10
24 -7 5 3 17 -1 27 -8 15 -11 16 -17 7 -42 l-11 -29 2 29 c1 18 -4 31 -12 34
-8 3 -11 0 -7 -7 4 -6 8 -29 8 -51 0 -38 10 -51 23 -30 3 6 1 10 -5 10 -6 0
-8 5 -4 11 11 18 21 -4 27 -61 4 -33 3 -49 -2 -41 -7 10 -9 6 -8 -12 3 -38 20
-28 31 18 5 21 22 49 38 64 l29 26 -20 25 c-11 14 -27 32 -35 40 -8 8 -17 29
-21 45 -5 24 -4 27 5 15 10 -13 11 -13 7 0 -2 8 7 27 21 42 14 15 22 31 18 35
-4 5 -13 0 -20 -9 -7 -10 -17 -14 -21 -10 -4 4 -6 1 -3 -7 6 -21 -49 -70 -71
-64 -29 7 -33 90 -6 110 16 12 16 14 3 10 -10 -4 -18 -3 -18 2 0 13 39 20 43
8 2 -8 6 -7 11 1 4 7 2 12 -3 12 -6 0 -11 5 -11 11 0 5 5 7 10 4 6 -3 10 -2
10 3 0 6 8 9 18 7 9 -1 11 0 5 2 -7 3 -13 11 -13 19 0 9 5 12 12 8 7 -4 8 -3
4 4 -4 7 11 20 39 33 27 13 45 28 45 38 0 9 5 22 11 28 8 8 8 17 0 30 -10 20
-5 63 8 63 4 0 13 -6 20 -12 11 -11 13 -9 8 9 -3 16 -1 20 9 16 10 -3 12 0 9
10 -4 8 1 17 11 21 19 7 33 -2 19 -12 -12 -9 -18 -32 -7 -32 4 0 13 14 20 30
8 17 19 30 25 29 38 -4 65 24 93 96 11 29 11 89 -1 97 -6 5 -6 11 2 19 14 14
6 39 -12 39 -8 0 -26 12 -42 28 -45 44 -63 56 -63 43z m80 -82 c0 -6 5 -7 10
-4 16 10 33 -5 21 -18 -5 -7 -6 -30 -1 -55 4 -23 3 -45 -1 -48 -5 -3 -9 1 -10
8 -3 73 -8 91 -35 120 -25 26 -26 29 -6 19 12 -6 22 -16 22 -22z m-345 -429
c-16 -31 -29 -37 -40 -19 -8 13 23 49 42 49 11 0 11 -5 -2 -30z m85 -353 c-10
-10 -11 -8 -6 8 6 15 4 17 -5 8 -6 -6 -8 -17 -4 -23 5 -8 10 -9 18 -1 15 15
24 14 30 -4 4 -9 -5 -22 -23 -35 -23 -16 -28 -18 -24 -6 3 9 -1 27 -10 41 -9
14 -12 26 -6 30 12 7 -9 55 -24 55 -6 0 -4 4 4 10 21 13 68 -66 50 -83z"/>
<path d="M1665 130 c-3 -5 -1 -10 4 -10 6 0 11 5 11 10 0 6 -2 10 -4 10 -3 0
-8 -4 -11 -10z"/>
<path d="M1300 1006 c0 -9 7 -16 16 -16 9 0 14 5 12 12 -6 18 -28 21 -28 4z"/>
<path d="M1377 1007 c-4 -11 -12 -15 -19 -11 -8 4 -10 3 -5 -2 5 -5 13 -10 18
-10 5 -1 10 -2 12 -4 9 -7 36 -6 31 1 -3 5 -9 7 -14 4 -5 -3 -10 5 -12 17 -3
20 -4 21 -11 5z"/>
<path d="M2199 996 c14 -14 27 -26 29 -26 10 0 -26 44 -39 48 -8 3 -3 -7 10
-22z"/>
<path d="M960 995 c-7 -8 -23 -15 -36 -15 -12 0 -25 -4 -28 -9 -3 -5 -22 -12
-41 -15 -19 -4 -44 -16 -54 -27 -10 -11 -34 -28 -52 -37 -19 -10 -38 -30 -46
-49 -12 -29 -10 -33 15 -60 15 -15 35 -32 45 -38 10 -5 19 -19 21 -30 15 -84
16 -104 7 -109 -6 -4 -12 13 -16 41 -8 57 -33 102 -45 83 -5 -8 -3 -19 5 -27
11 -11 45 -107 45 -128 0 -15 57 -56 121 -86 38 -18 69 -36 69 -40 0 -5 16
-11 35 -15 19 -3 33 -10 30 -14 -3 -4 1 -13 9 -19 10 -9 15 -8 20 4 4 11 -6
23 -32 38 -20 12 -39 20 -41 19 -2 -2 -7 2 -12 9 -4 7 -13 14 -21 15 -38 8
-93 34 -90 43 1 6 -6 11 -16 11 -11 0 -26 8 -36 19 -13 14 -14 24 -6 45 17 47
-6 139 -42 165 -13 9 -26 15 -29 14 -3 -1 -11 8 -17 21 -8 19 -6 29 11 55 23
32 40 42 31 16 -4 -8 -1 -15 5 -15 7 0 14 7 17 15 4 8 10 12 15 9 5 -3 8 0 7
7 -2 7 9 19 25 26 15 8 27 19 27 25 0 6 6 6 15 -2 12 -10 19 -10 27 -2 7 7 22
12 33 12 14 0 26 10 34 26 14 31 9 41 -9 19z"/>
<path d="M1567 989 c4 -13 8 -18 11 -10 2 7 -1 18 -6 23 -8 8 -9 4 -5 -13z"/>
<path d="M1250 990 c-17 -11 -8 -23 14 -18 9 2 12 8 8 15 -5 8 -13 9 -22 3z"/>
<path d="M2038 970 c-9 -14 -19 -45 -23 -70 -4 -40 -4 -42 6 -17 6 15 17 27
24 27 19 0 22 10 15 50 l-5 35 -17 -25z"/>
<path d="M1346 963 c4 -15 0 -23 -14 -27 -11 -4 -27 -15 -36 -25 -14 -15 -15
-19 -3 -24 9 -3 19 4 26 19 6 14 15 23 20 20 5 -3 14 0 20 7 8 10 7 19 -4 33
-14 18 -14 18 -9 -3z"/>
<path d="M1039 955 c-3 -28 -4 -33 -11 -41 -5 -4 -8 -15 -8 -25 0 -9 -11 -24
-25 -33 -30 -20 -31 -38 -4 -82 11 -19 18 -42 15 -52 -9 -26 15 -54 34 -42 13
8 12 10 -2 10 -19 0 -24 15 -9 24 5 3 7 15 4 26 -3 11 -9 18 -13 15 -9 -5 -20
29 -20 61 0 11 11 31 25 44 14 13 25 29 25 37 0 7 4 13 8 13 5 0 7 14 4 30 -4
31 -21 42 -23 15z"/>
<path d="M1094 951 c0 -11 4 -17 8 -15 4 3 8 12 8 20 0 8 -4 14 -8 14 -4 0 -8
-9 -8 -19z"/>
<path d="M1197 963 c-11 -10 -8 -25 3 -18 12 7 17 -5 24 -66 5 -45 4 -47 -24
-59 -29 -12 -41 -30 -20 -30 6 0 10 4 10 8 0 4 14 13 30 19 26 10 30 16 27 42
-2 17 -7 34 -10 38 -4 3 -2 12 4 20 9 10 6 18 -11 33 -26 23 -25 22 -33 13z"/>
<path d="M1379 955 c8 -16 5 -25 -16 -47 -15 -15 -23 -31 -20 -35 4 -3 14 2
22 13 32 40 35 51 19 70 -15 18 -15 18 -5 -1z"/>
<path d="M1570 945 c-8 -9 -21 -13 -34 -10 -15 5 -17 4 -7 -3 11 -8 10 -12 -6
-21 -11 -5 -24 -7 -28 -3 -4 4 -4 -4 0 -17 5 -16 4 -21 -4 -17 -7 4 -11 -1
-11 -13 0 -12 4 -21 8 -21 4 0 8 -9 8 -19 0 -11 -4 -17 -8 -15 -5 3 -21 -1
-38 -9 -16 -8 -31 -12 -33 -8 -2 3 -2 0 0 -8 2 -8 -2 -11 -12 -7 -9 3 -18 -1
-21 -9 -4 -8 -12 -15 -20 -15 -8 0 -14 -7 -14 -15 0 -8 -6 -15 -14 -15 -8 0
-17 -7 -20 -16 -8 -21 -27 -8 -19 14 5 14 3 15 -7 5 -10 -9 -10 -15 -2 -26 7
-8 8 -17 4 -21 -4 -5 10 0 30 10 20 9 38 25 41 34 5 19 103 71 133 71 11 0 35
-3 54 -5 31 -5 31 -4 5 2 -20 5 -26 10 -18 15 7 5 18 18 24 30 9 18 5 16 -21
-8 -18 -16 -30 -23 -28 -15 3 8 1 23 -3 32 -14 26 -1 46 47 74 24 14 41 30 38
35 -7 12 -9 12 -24 -6z"/>
<path d="M1732 934 c2 -14 8 -30 14 -35 9 -7 10 -18 3 -37 -5 -15 -10 -51 -12
-79 -2 -53 6 -61 41 -39 11 7 11 11 -1 24 -23 28 -28 52 -17 92 8 29 7 44 -6
69 -19 38 -24 39 -22 5z"/>
<path d="M2070 953 c0 -6 5 -15 12 -19 7 -5 0 -16 -21 -33 -29 -24 -31 -31
-35 -104 -2 -43 -7 -81 -10 -85 -4 -3 -4 2 0 13 6 17 5 18 -7 7 -12 -11 -11
-15 4 -27 17 -12 16 -14 -11 -20 -35 -7 -78 -52 -80 -82 -1 -32 11 -35 25 -6
10 22 10 24 -5 19 -9 -4 -6 3 8 14 14 11 31 20 38 20 7 0 11 4 7 9 -3 5 11 15
30 22 19 7 35 16 35 21 0 4 -8 5 -17 1 -16 -6 -16 -4 1 15 11 12 16 25 13 29
-4 3 -7 0 -7 -7 0 -7 -3 -10 -6 -7 -11 10 17 37 37 37 10 0 26 12 35 26 15 22
15 27 3 34 -15 10 -22 70 -8 70 5 0 8 -3 8 -7 -1 -5 -1 -17 0 -28 1 -18 2 -18
17 -3 16 15 14 20 -24 60 -23 24 -42 38 -42 31z m22 -93 c3 -23 1 -30 -9 -26
-7 3 -12 2 -10 -2 1 -4 -6 -18 -16 -32 -13 -18 -17 -20 -17 -8 0 9 4 19 9 22
5 4 8 18 6 34 -3 32 1 42 19 42 8 0 16 -14 18 -30z m12 -55 c-3 -6 -14 -11
-25 -12 -16 -1 -18 1 -10 11 13 16 41 17 35 1z"/>
<path d="M2065 870 c-3 -5 -1 -10 4 -10 6 0 11 5 11 10 0 6 -2 10 -4 10 -3 0
-8 -4 -11 -10z"/>
<path d="M530 921 c-5 -11 -7 -27 -4 -35 3 -9 1 -16 -5 -16 -6 0 -10 -3 -9 -7
1 -5 -2 -20 -6 -35 -8 -28 16 -79 28 -59 4 5 2 12 -4 16 -5 3 -10 17 -10 31 0
14 4 22 10 19 6 -3 10 -13 10 -22 0 -19 39 -55 51 -47 5 3 9 0 9 -6 0 -6 5 -8
11 -5 6 4 -6 21 -29 41 -39 33 -58 69 -42 79 5 3 11 -1 13 -7 3 -8 6 -6 6 5 1
9 -3 17 -9 17 -17 0 -11 28 8 39 16 10 16 10 0 11 -10 0 -22 -9 -28 -19z"/>
<path d="M730 924 l-25 -15 30 6 c17 4 34 11 40 16 15 15 -17 10 -45 -7z"/>
<path d="M1260 931 c0 -6 5 -13 10 -16 6 -3 10 1 10 9 0 9 -4 16 -10 16 -5 0
-10 -4 -10 -9z"/>
<path d="M1781 899 c24 -34 29 -36 29 -11 0 9 -11 22 -25 29 l-25 11 21 -29z"/>
<path d="M2247 917 c-8 -20 9 -63 36 -94 16 -18 17 -25 6 -45 -7 -12 -11 -25
-9 -28 2 -3 -11 -13 -28 -23 -19 -11 -32 -14 -32 -8 0 6 11 16 24 22 21 10 44
49 28 49 -8 0 -62 -62 -62 -72 0 -4 -29 -21 -64 -38 -71 -32 -79 -39 -66 -60
7 -12 10 -12 16 3 3 9 12 17 19 17 7 0 19 10 28 23 8 12 18 19 22 15 11 -10
-96 -107 -111 -101 -20 7 -27 -16 -12 -40 8 -12 13 -39 12 -60 -3 -33 -1 -37
12 -27 17 15 18 40 2 75 -10 23 -10 28 4 36 10 5 24 16 32 25 10 9 24 13 36 9
16 -5 20 -2 20 17 0 14 9 34 19 45 11 12 18 23 15 26 -2 2 3 10 13 18 15 13
16 12 9 -6 -5 -11 -9 -25 -9 -32 0 -7 -4 -10 -8 -8 -9 6 -19 -20 -19 -47 0
-11 -11 -29 -25 -39 -15 -13 -22 -26 -18 -36 4 -10 2 -14 -5 -9 -12 7 -21 -4
-27 -31 -5 -29 -31 -73 -38 -66 -4 3 -7 1 -7 -6 0 -7 -16 -19 -35 -27 -27 -11
-35 -20 -35 -39 0 -14 4 -25 8 -25 4 0 13 -13 19 -30 10 -25 8 -31 -11 -43
-28 -19 -76 -68 -76 -78 0 -5 7 -6 15 -2 9 3 13 8 10 11 -8 8 26 42 42 42 7 0
16 6 19 14 3 8 14 16 25 19 10 3 19 11 19 19 0 10 -3 9 -10 -2 -7 -12 -10 -8
-10 15 0 18 -3 25 -8 18 -5 -8 -12 -2 -21 18 -12 27 -11 32 5 44 22 17 38 19
29 5 -3 -6 1 -7 10 -3 11 4 13 8 6 13 -7 4 -2 12 14 20 14 7 25 22 25 32 0 10
4 18 9 18 5 0 12 11 15 25 4 14 11 25 16 25 6 0 10 11 10 25 0 15 6 25 14 25
14 0 41 59 31 68 -3 3 4 12 15 19 11 8 18 19 15 24 -4 5 -1 9 5 9 6 0 9 4 5 9
-5 9 33 37 46 34 4 -1 14 17 23 39 15 41 15 42 -7 66 -12 13 -27 42 -32 65 -8
31 -13 37 -18 24z m-187 -351 c0 -3 -4 -8 -10 -11 -5 -3 -10 -1 -10 4 0 6 5
11 10 11 6 0 10 -2 10 -4z"/>
<path d="M566 911 c-4 -5 3 -7 14 -4 23 6 26 13 6 13 -8 0 -17 -4 -20 -9z"/>
<path d="M613 899 c-51 -23 -55 -45 -17 -86 25 -27 25 -27 21 -5 -6 25 37 99
54 95 5 -2 9 2 9 7 0 14 -19 11 -67 -11z"/>
<path d="M860 906 c0 -8 -5 -16 -12 -18 -6 -2 -8 -10 -4 -17 6 -9 12 -5 22 14
17 32 17 35 4 35 -5 0 -10 -6 -10 -14z"/>
<path d="M1104 906 c-3 -8 -1 -22 4 -32 7 -13 9 -10 8 15 -1 34 -4 38 -12 17z"/>
<path d="M1817 878 c-4 -15 -5 -47 -2 -70 5 -39 4 -40 -6 -18 -7 14 -11 28
-11 32 1 4 -6 5 -16 2 -14 -5 -14 -3 3 10 18 16 18 17 1 34 -14 13 -17 14 -14
2 3 -8 1 -23 -4 -33 -7 -14 -4 -27 14 -52 21 -31 24 -33 40 -18 10 9 15 20 12
25 -3 5 0 15 6 23 8 10 9 15 2 15 -6 0 -12 17 -14 38 -3 35 -3 36 -11 10z"/>
<path d="M659 860 c-19 -19 -28 -36 -25 -47 16 -57 5 -138 -28 -196 l-21 -39
28 -24 c28 -24 47 -31 47 -16 0 4 -5 13 -11 19 -8 8 -8 17 1 33 8 15 8 25 0
34 -7 9 -7 22 0 40 5 14 7 34 3 43 -5 16 -4 16 10 3 18 -18 34 -66 19 -56 -5
3 -13 -1 -16 -10 -10 -27 -7 -28 18 -5 37 35 33 94 -10 147 -20 25 -29 45 -25
53 5 7 12 11 16 9 4 -1 14 7 23 20 21 31 6 27 -29 -8z m25 -116 c9 -24 7 -36
-6 -32 -13 5 -22 48 -9 48 5 0 12 -7 15 -16z m-53 -147 c-10 -9 -11 -8 -5 6 3
10 9 15 12 12 3 -3 0 -11 -7 -18z"/>
<path d="M1397 875 c-9 -8 -20 -15 -26 -15 -14 0 -23 -18 -16 -30 4 -6 19 3
37 20 17 17 28 33 25 36 -2 3 -12 -2 -20 -11z"/>
<path d="M1050 858 c0 -4 4 -8 9 -8 6 0 12 4 15 8 3 5 -1 9 -9 9 -8 0 -15 -4
-15 -9z"/>
<path d="M1130 849 c0 -5 5 -7 10 -4 6 3 10 8 10 11 0 2 -4 4 -10 4 -5 0 -10
-5 -10 -11z"/>
<path d="M1292 849 c2 -7 10 -15 17 -17 8 -3 12 1 9 9 -2 7 -10 15 -17 17 -8
3 -12 -1 -9 -9z"/>
<path d="M2360 851 c0 -6 4 -13 10 -16 6 -3 7 1 4 9 -7 18 -14 21 -14 7z"/>
<path d="M830 831 c0 -10 8 -25 17 -32 15 -12 16 -12 10 4 -4 10 -7 25 -7 33
0 8 -4 14 -10 14 -5 0 -10 -8 -10 -19z"/>
<path d="M1266 835 c-3 -8 -1 -15 4 -15 6 0 10 7 10 15 0 8 -2 15 -4 15 -2 0
-6 -7 -10 -15z"/>
<path d="M2000 835 c0 -8 4 -15 10 -15 5 0 7 7 4 15 -4 8 -8 15 -10 15 -2 0
-4 -7 -4 -15z"/>
<path d="M730 833 c0 -16 16 -32 25 -25 18 13 15 32 -5 32 -11 0 -20 -3 -20
-7z"/>
<path d="M1030 818 c0 -19 2 -20 10 -8 13 19 13 30 0 30 -5 0 -10 -10 -10 -22z"/>
<path d="M1080 825 c0 -8 5 -15 10 -15 6 0 10 7 10 15 0 8 -4 15 -10 15 -5 0
-10 -7 -10 -15z"/>
<path d="M655 820 c3 -5 8 -10 11 -10 2 0 4 5 4 10 0 6 -5 10 -11 10 -5 0 -7
-4 -4 -10z"/>
<path d="M1303 806 c-17 -8 -21 -16 -17 -31 6 -22 31 -45 48 -45 6 0 0 7 -12
16 -12 8 -20 20 -16 25 3 6 11 3 18 -6 11 -16 13 -15 27 2 13 16 12 17 -2 5
-14 -10 -18 -10 -23 4 -8 21 -8 26 2 20 5 -3 9 1 9 9 0 17 -3 17 -34 1z"/>
<path d="M1065 790 c-3 -5 1 -10 10 -10 9 0 13 5 10 10 -3 6 -8 10 -10 10 -2
0 -7 -4 -10 -10z"/>
<path d="M1673 752 c-40 -42 -57 -72 -33 -57 6 3 10 2 10 -4 0 -5 -4 -13 -10
-16 -24 -15 -7 -22 20 -9 16 9 39 13 50 9 13 -4 35 4 66 25 46 32 55 52 12 29
-25 -14 -30 -16 -54 -18 -8 0 -13 -5 -10 -9 2 -4 -8 -7 -22 -6 -15 1 -33 3
-40 3 -19 1 -4 21 16 21 27 0 56 39 45 60 -7 16 -13 12 -50 -28z"/>
<path d="M1135 773 c4 -10 8 -29 10 -43 4 -48 5 -51 14 -46 9 6 6 80 -4 97
-11 17 -27 10 -20 -8z"/>
<path d="M1208 783 c-10 -2 -18 -9 -18 -15 0 -5 7 -7 16 -4 9 3 20 6 25 6 5 0
9 5 9 10 0 10 -3 11 -32 3z"/>
<path d="M2323 763 c-1 -16 -3 -40 -5 -55 -3 -15 -2 -25 2 -23 12 7 20 -21 9
-34 -6 -8 -5 -8 3 -1 9 7 17 -1 30 -28 15 -33 17 -34 18 -12 0 14 -11 38 -25
54 -26 31 -30 42 -17 50 10 6 3 76 -8 76 -4 0 -7 -12 -7 -27z"/>
<path d="M809 771 c8 -5 11 -16 7 -26 -5 -15 -4 -16 8 -6 11 9 15 8 20 -5 3
-9 4 -20 1 -24 -3 -5 -1 -11 4 -14 5 -4 12 -2 16 4 9 15 -34 80 -53 80 -14 0
-14 -2 -3 -9z"/>
<path d="M1448 758 c-59 -25 -62 -39 -5 -26 23 6 54 10 70 10 32 1 37 18 5 18
-19 0 -20 2 -8 10 27 18 -10 10 -62 -12z"/>
<path d="M1086 755 c4 -8 13 -15 21 -15 13 0 13 3 3 15 -7 8 -16 15 -21 15 -5
0 -6 -7 -3 -15z"/>
<path d="M1253 762 c-7 -5 -10 -18 -6 -32 7 -25 7 -25 14 5 9 33 8 37 -8 27z"/>
<path d="M540 752 c0 -5 7 -17 15 -28 22 -29 19 -63 -7 -74 -13 -5 -17 -9 -10
-9 6 -1 12 -9 13 -18 0 -14 2 -13 9 5 5 12 14 22 21 22 6 0 9 7 5 15 -3 8 -1
15 5 15 6 0 8 10 5 23 -3 12 -3 16 0 9 3 -6 10 -10 15 -6 15 9 10 24 -7 24 -8
0 -22 7 -30 15 -17 16 -34 20 -34 7z"/>
<path d="M1040 750 c0 -5 5 -10 11 -10 5 0 7 5 4 10 -3 6 -8 10 -11 10 -2 0
-4 -4 -4 -10z"/>
<path d="M1941 728 c-21 -50 -32 -62 -43 -46 -7 10 -8 10 -7 -2 1 -8 1 -23 0
-34 -1 -16 -3 -17 -18 -5 -15 13 -15 12 -5 -8 14 -25 16 -46 4 -39 -5 3 -8
-11 -7 -29 2 -42 -19 -76 -43 -69 -14 5 -15 4 -2 -5 13 -10 8 -15 -12 -12 -4
0 -5 -6 -2 -13 6 -15 -47 -49 -76 -50 -8 -1 -14 -7 -12 -15 1 -7 -5 -19 -14
-26 -11 -7 -13 -14 -7 -18 6 -4 13 -1 16 7 7 18 95 68 107 61 19 -12 10 -34
-18 -49 -22 -11 -29 -23 -30 -44 -1 -44 29 -31 50 21 31 76 31 77 14 77 -9 0
-16 7 -16 15 0 16 15 21 23 8 2 -5 2 -2 0 5 -1 7 13 28 32 47 19 19 31 35 27
35 -4 0 0 5 8 10 8 5 10 10 4 10 -12 0 -15 35 -8 77 2 12 13 24 23 28 10 3 21
16 24 28 3 12 9 32 12 45 11 34 -8 26 -24 -10z m-51 -158 c0 -5 -5 -10 -11
-10 -5 0 -7 5 -4 10 3 6 8 10 11 10 2 0 4 -4 4 -10z"/>
<path d="M1200 714 c0 -15 -7 -32 -16 -39 -13 -9 -14 -16 -6 -31 10 -17 11
-17 23 9 7 15 16 27 21 27 14 0 5 53 -9 58 -8 2 -13 -6 -13 -24z"/>
<path d="M520 710 c0 -13 6 -20 18 -19 9 0 12 3 5 5 -7 3 -9 12 -6 20 3 8 0
14 -6 14 -6 0 -11 -9 -11 -20z"/>
<path d="M1055 719 c-4 -6 -4 -13 -1 -16 3 -4 6 -1 6 6 0 7 5 9 10 6 6 -3 10
-1 10 4 0 14 -17 14 -25 0z"/>
<path d="M1106 712 c-5 -15 -2 -27 8 -38 9 -8 16 -22 16 -30 0 -8 5 -14 10
-14 15 0 12 26 -4 43 -8 7 -16 25 -18 38 l-4 24 -8 -23z"/>
<path d="M1376 712 c-3 -4 4 -9 15 -9 23 -2 25 3 4 10 -8 4 -16 3 -19 -1z"/>
<path d="M1601 706 c-8 -10 -29 -16 -53 -16 -21 0 -55 -7 -75 -15 -19 -8 -45
-15 -57 -15 -15 0 -29 -14 -47 -48 -25 -45 -29 -89 -7 -76 6 4 9 1 6 -7 -3 -8
-11 -14 -18 -14 -7 0 -15 -7 -17 -15 -4 -12 -3 -12 5 -1 7 10 13 4 22 -25 7
-22 15 -43 18 -49 7 -11 11 -45 5 -45 -2 0 -12 9 -23 20 -14 14 -16 20 -6 20
12 0 12 5 3 31 l-12 31 -6 -33 c-4 -27 0 -40 18 -60 13 -14 23 -31 23 -38 0
-7 4 -10 9 -7 5 3 7 19 5 36 -3 21 1 30 11 30 8 0 15 4 15 9 0 13 -26 32 -33
24 -4 -3 -8 9 -8 28 -1 19 -2 43 -3 54 -1 11 3 26 8 34 6 7 11 20 12 28 4 24
25 43 49 43 12 0 25 3 29 7 8 8 13 9 63 11 36 2 88 41 82 61 -4 10 -8 9 -18
-3z m-66 -36 c-3 -5 -12 -10 -18 -10 -7 0 -6 4 3 10 19 12 23 12 15 0z"/>
<path d="M1977 713 c-4 -3 -7 -11 -7 -17 0 -6 5 -5 12 2 6 6 9 14 7 17 -3 3
-9 2 -12 -2z"/>
<path d="M1072 678 c-2 -22 -6 -25 -24 -21 -21 5 -20 2 9 -29 18 -18 34 -46
35 -62 3 -28 23 -54 35 -43 3 4 0 13 -7 22 -8 10 -10 29 -6 58 4 29 3 37 -3
27 -14 -21 -29 -3 -34 40 -3 27 -4 29 -5 8z"/>
<path d="M887 683 c-13 -12 -7 -22 10 -16 11 4 14 3 9 -5 -5 -8 1 -12 16 -12
13 0 32 -7 43 -16 16 -12 18 -18 7 -34 -16 -27 -15 -38 1 -15 13 17 15 16 24
-11 13 -36 49 -74 70 -74 13 0 13 -3 3 -15 -7 -8 -8 -15 -3 -15 5 0 10 -16 11
-35 1 -20 6 -43 12 -53 11 -16 11 -16 6 1 -3 9 -2 17 3 17 13 0 45 -40 37 -47
-4 -4 -11 -1 -16 7 -6 8 -10 10 -10 4 0 -6 23 -26 50 -45 29 -20 48 -39 45
-47 -3 -7 7 -24 21 -38 18 -19 23 -32 18 -47 -3 -12 -3 -19 1 -15 12 11 36
-42 30 -62 -3 -10 2 -25 10 -34 9 -9 14 -16 10 -16 -3 0 2 -13 11 -29 11 -19
25 -29 41 -29 25 0 25 1 -7 29 -17 16 -28 29 -23 29 4 0 1 4 -7 10 -8 5 -15
19 -16 32 -1 13 -4 30 -7 38 -2 8 -11 35 -18 60 -8 25 -21 52 -31 62 -9 9 -14
19 -11 21 2 3 -5 8 -16 12 -11 3 -23 15 -26 26 -4 10 -11 19 -16 19 -5 0 -9
12 -9 26 0 17 -6 28 -19 31 -21 5 -36 31 -49 82 -5 24 -17 39 -39 50 -18 9
-35 27 -38 41 -4 14 -11 27 -16 31 -5 3 -7 13 -3 22 3 9 10 14 15 11 14 -9 10
10 -7 32 -15 18 -15 18 -9 -3 6 -23 -8 -32 -20 -13 -3 6 -16 10 -27 10 -12 0
-29 7 -38 15 -9 8 -20 12 -23 8z"/>
<path d="M1228 658 c-28 -31 -35 -48 -20 -48 16 0 64 62 55 70 -4 5 -20 -5
-35 -22z"/>
<path d="M1319 669 c-29 -17 -51 -45 -76 -100 -2 -4 3 -9 11 -12 10 -4 12 0 8
15 -4 17 -2 20 11 15 11 -4 14 -2 11 8 -5 13 2 22 61 70 37 30 23 32 -26 4z"/>
<path d="M520 670 c0 -5 5 -10 10 -10 6 0 10 5 10 10 0 6 -4 10 -10 10 -5 0
-10 -4 -10 -10z"/>
<path d="M723 668 c4 -10 2 -18 -3 -18 -6 0 -10 -7 -10 -16 0 -10 5 -14 16
-10 10 4 13 2 7 -7 -4 -6 -9 -23 -11 -37 -4 -30 -7 -34 -21 -25 -7 4 -8 12 -2
24 8 15 -2 54 -11 41 -23 -36 -27 -52 -18 -75 5 -14 14 -25 20 -25 5 0 10 -6
10 -13 0 -7 18 -28 40 -47 22 -19 40 -43 40 -52 0 -10 10 -26 21 -36 12 -9 34
-30 50 -47 15 -16 31 -26 35 -22 9 9 -23 45 -61 68 -16 11 -24 19 -18 19 9 0
6 10 -7 32 -10 17 -17 35 -14 40 3 4 -1 8 -9 8 -15 0 -71 59 -63 67 2 3 17 -8
33 -23 15 -16 30 -29 33 -30 27 -5 79 -37 75 -44 -3 -6 -2 -10 4 -10 5 0 21
-11 36 -24 20 -19 23 -25 12 -35 -8 -6 -17 -8 -20 -4 -4 3 -7 1 -7 -5 0 -16
10 -15 31 4 15 14 20 14 31 3 7 -8 14 -22 16 -32 3 -16 -1 -18 -29 -12 -24 5
-30 4 -27 -6 3 -8 15 -16 29 -17 13 -2 29 -8 34 -14 7 -7 2 -8 -15 -3 -28 8
-27 6 14 -19 16 -10 25 -13 21 -6 -5 8 -3 11 6 8 8 -3 13 -11 11 -17 -1 -6 5
-11 14 -11 13 0 14 3 5 14 -9 10 -9 16 -1 21 13 8 -5 35 -23 35 -7 0 -7 -4 1
-12 16 -16 15 -29 -2 -22 -8 3 -18 23 -21 45 -6 36 -55 99 -77 99 -5 0 -8 7
-8 15 0 21 4 19 42 -15 18 -17 38 -28 45 -26 15 6 67 -59 59 -73 -4 -5 -2 -13
4 -16 6 -4 8 -14 5 -23 -4 -13 5 -20 35 -30 22 -6 45 -12 51 -12 6 0 29 -16
52 -35 22 -19 42 -33 44 -31 17 16 -88 103 -109 90 -7 -5 -8 -3 -3 6 6 9 4 12
-6 8 -17 -6 -57 33 -52 49 3 7 -4 20 -15 31 -10 10 -21 25 -24 33 -8 21 -126
81 -130 67 -3 -8 -9 -8 -24 0 -19 11 -19 11 1 12 15 1 17 3 5 8 -36 17 -90 55
-90 63 0 5 -5 9 -10 9 -20 0 14 -38 48 -54 19 -9 32 -19 29 -22 -7 -8 -64 23
-88 47 -11 11 -18 27 -15 35 3 9 1 12 -4 9 -6 -3 -10 1 -10 9 0 9 5 16 11 16
14 0 3 70 -13 85 -8 7 -9 5 -5 -7z"/>
<path d="M1350 651 c0 -5 -9 -12 -19 -16 -18 -5 -36 -33 -28 -42 7 -7 37 9 37
19 0 6 7 16 17 23 11 8 13 14 5 19 -7 4 -12 3 -12 -3z"/>
<path d="M1586 651 c-4 -5 -25 -12 -49 -16 -53 -8 -89 -25 -83 -41 2 -6 -11
-27 -30 -45 -19 -18 -34 -40 -33 -48 0 -10 4 -7 9 7 13 31 20 28 11 -5 -9 -32
-4 -55 15 -66 16 -9 19 -37 5 -37 -6 0 -3 -12 5 -27 16 -32 19 -77 4 -68 -6 4
-8 10 -5 15 3 5 0 12 -6 15 -5 4 -8 13 -5 21 3 8 1 14 -4 14 -16 0 -11 -46 8
-82 19 -36 32 -49 43 -42 4 2 10 0 14 -6 3 -5 11 -10 16 -10 5 0 2 11 -8 24
-12 16 -20 20 -25 12 -9 -14 -11 2 -9 112 1 88 8 110 49 155 14 15 26 40 27
55 0 21 8 31 38 44 36 18 47 28 28 28 -6 0 -12 -4 -15 -9z m-74 -67 c-2 -14
-11 -28 -18 -31 -8 -3 -11 -10 -7 -16 3 -5 1 -7 -4 -4 -7 4 -16 -12 -24 -38
-7 -25 -17 -45 -22 -45 -5 0 -6 7 -3 15 19 46 19 50 3 30 -13 -16 -16 -17 -17
-4 0 9 3 19 8 23 4 4 7 13 7 19 0 7 6 12 14 12 8 0 16 11 18 25 3 25 30 53 43
45 4 -3 5 -16 2 -31z"/>
<path d="M1480 575 c0 -8 2 -15 4 -15 2 0 6 7 10 15 3 8 1 15 -4 15 -6 0 -10
-7 -10 -15z"/>
<path d="M520 614 c0 -12 9 -33 20 -47 11 -14 18 -32 14 -40 -6 -17 16 -41 57
-62 23 -12 29 -22 29 -48 0 -29 29 -89 30 -62 0 5 7 -1 16 -13 8 -12 23 -22
32 -22 24 -1 52 -24 52 -43 0 -9 11 -24 24 -33 16 -10 23 -22 19 -32 -4 -13
-3 -14 5 -4 7 11 15 11 45 -1 19 -9 38 -13 41 -9 3 3 6 0 6 -6 0 -7 7 -12 15
-12 8 0 15 4 15 9 0 9 -38 26 -83 36 -33 7 -56 28 -76 67 -8 15 -22 30 -33 33
-10 4 -24 12 -30 18 -7 7 -25 20 -39 29 -20 13 -25 23 -22 41 6 30 -23 77 -46
77 -10 0 -26 7 -37 15 -16 13 -17 16 -4 25 12 8 13 13 2 27 -7 10 -21 32 -32
48 -18 26 -20 27 -20 9z"/>
<path d="M2025 605 c-16 -14 -36 -25 -42 -25 -7 0 -13 -7 -13 -15 0 -8 -4 -15
-10 -15 -5 0 -10 -12 -10 -28 0 -19 -7 -30 -22 -37 -15 -6 -23 -19 -24 -35 -1
-14 -2 -29 -4 -35 -4 -18 0 -35 9 -35 4 0 6 10 4 23 -4 26 16 68 37 75 13 5
13 3 0 -14 -14 -18 -14 -18 3 -5 10 8 17 9 17 3 0 -6 -4 -14 -10 -17 -15 -9
-12 -25 4 -19 8 3 17 16 20 30 6 21 9 22 26 12 27 -17 32 -34 14 -49 -12 -10
-13 -9 -8 5 3 9 2 16 -4 16 -6 0 -12 -5 -14 -10 -2 -6 -20 -12 -41 -13 -26 -1
-36 -6 -32 -15 3 -8 5 -18 5 -23 0 -5 7 -9 16 -9 12 0 13 -5 8 -22 -5 -13 -8
-35 -9 -50 0 -20 -16 -45 -54 -84 -42 -44 -54 -65 -57 -95 -2 -21 1 -41 6 -44
16 -10 11 -28 -6 -21 -8 3 -12 2 -9 -4 3 -5 -11 -16 -30 -26 -20 -9 -34 -19
-31 -21 3 -3 25 4 50 16 46 23 64 47 46 65 -18 18 -11 43 20 72 21 21 26 31
17 37 -8 6 -6 7 5 3 11 -3 22 2 28 14 6 11 26 30 45 43 l34 23 -19 32 c-23 37
-25 62 -7 81 10 11 8 11 -11 1 -13 -6 -26 -9 -29 -7 -8 9 38 29 57 24 33 -9
48 10 44 53 -2 23 -9 50 -15 61 -14 27 -4 66 21 79 19 10 28 30 13 30 -5 -1
-21 -12 -38 -25z m-15 -75 c13 -8 13 -10 -2 -10 -9 0 -20 5 -23 10 -8 13 5 13
25 0z m-8 -23 c15 -1 25 -8 25 -19 1 -11 -3 -15 -13 -11 -8 3 -14 10 -14 17 0
6 -7 3 -14 -6 -16 -22 -26 -13 -26 21 0 18 3 22 9 13 5 -8 19 -15 33 -15z
m-22 -208 c0 -5 -4 -9 -10 -9 -5 0 -10 7 -10 16 0 8 5 12 10 9 6 -3 10 -10 10
-16z m9 -22 c-2 -1 -15 -11 -28 -22 l-24 -20 14 23 c8 12 20 22 28 22 8 0 12
-1 10 -3z"/>
<path d="M1143 594 c-13 -27 -10 -44 8 -44 5 0 9 6 9 14 0 7 7 19 15 26 8 7
12 16 9 21 -10 17 -29 9 -41 -17z"/>
<path d="M2211 604 c0 -11 3 -14 6 -6 3 7 2 16 -1 19 -3 4 -6 -2 -5 -13z"/>
<path d="M1031 586 c15 -32 32 -34 27 -4 -2 13 -11 24 -21 26 -15 3 -16 0 -6
-22z"/>
<path d="M1422 598 c-6 -6 -12 -19 -12 -27 0 -13 2 -13 16 1 9 9 15 21 13 27
-3 9 -8 8 -17 -1z"/>
<path d="M1208 580 c-12 -16 -14 -28 -8 -34 17 -17 11 -36 -17 -62 -26 -22
-27 -25 -10 -35 9 -5 17 -19 17 -30 0 -30 18 -59 38 -59 15 0 15 2 2 10 -8 5
-11 10 -7 10 5 0 -1 17 -13 37 -18 31 -20 40 -9 60 7 13 16 23 20 23 5 0 6 7
3 15 -5 11 -2 13 10 9 9 -3 16 -11 15 -18 -1 -6 3 -24 9 -39 7 -16 9 -33 6
-39 -4 -6 -1 -9 7 -6 23 8 12 79 -16 104 -13 12 -25 35 -27 50 l-3 29 -17 -25z"/>
<path d="M2346 558 c-6 -33 14 -68 40 -68 16 0 11 -49 -6 -60 -7 -5 -38 -11
-69 -15 -30 -4 -64 -9 -75 -11 -11 -2 -27 2 -35 8 -13 10 -14 10 -3 -2 23 -27
12 -33 -15 -9 -20 17 -23 18 -10 3 22 -26 22 -41 0 -23 -15 13 -15 12 -2 -8
l13 -22 23 21 c13 12 31 23 41 24 9 1 43 5 74 9 48 5 61 11 78 35 25 35 25 47
1 55 -34 10 -54 41 -42 64 6 11 7 22 2 25 -5 3 -11 -8 -15 -26z"/>
<path d="M1300 570 c-12 -7 -13 -18 -3 -64 6 -30 9 -63 7 -73 -3 -11 1 -24 8
-30 11 -9 13 6 13 83 0 52 -2 94 -5 94 -3 0 -12 -4 -20 -10z"/>
<path d="M1771 563 c0 -13 -5 -23 -11 -23 -5 0 -10 -5 -10 -12 0 -8 6 -7 16 4
9 8 14 24 11 34 -4 16 -5 15 -6 -3z"/>
<path d="M2101 563 c-12 -10 -18 -23 -13 -29 4 -7 15 -1 30 18 26 31 16 38
-17 11z"/>
<path d="M1695 552 c-5 -13 -19 -25 -39 -30 -19 -5 -32 -16 -34 -28 -4 -18 -3
-18 13 1 9 11 13 13 9 5 -6 -11 -2 -10 13 3 11 9 22 15 25 12 10 -10 30 24 25
42 -4 16 -6 15 -12 -5z"/>
<path d="M590 521 c0 -12 6 -21 15 -21 8 0 15 4 15 9 0 5 -7 14 -15 21 -13 10
-15 9 -15 -9z"/>
<path d="M1160 526 c0 -2 7 -7 16 -10 8 -3 12 -2 9 4 -6 10 -25 14 -25 6z"/>
<path d="M1128 488 c-12 -15 -14 -26 -8 -39 14 -25 27 -32 36 -18 4 8 3 9 -5
5 -14 -9 -28 23 -14 33 12 8 25 41 15 41 -4 0 -15 -10 -24 -22z"/>
<path d="M663 472 c18 -19 25 -34 21 -49 -3 -11 -1 -24 5 -27 6 -4 11 0 11 11
0 15 2 15 9 3 6 -8 8 -17 5 -21 -2 -4 11 -18 30 -33 19 -14 44 -42 56 -61 17
-28 27 -34 44 -30 14 4 17 3 8 -3 -11 -7 -10 -10 3 -16 9 -3 24 -6 33 -6 14 0
14 2 3 9 -10 7 -7 9 12 8 19 -2 23 -5 15 -15 -8 -9 -7 -11 7 -6 13 5 16 4 11
-4 -4 -7 -1 -14 8 -17 9 -3 24 -8 34 -12 9 -3 28 -8 41 -9 13 -2 26 -6 30 -10
3 -4 -4 -5 -15 -2 -12 3 -28 2 -35 -3 -19 -12 37 -12 78 0 30 9 34 7 50 -19 9
-16 20 -27 25 -24 4 3 8 -2 8 -10 0 -22 -8 -20 -46 13 -24 22 -39 28 -56 23
-23 -6 -23 -6 3 -12 28 -6 77 -40 117 -82 15 -16 32 -28 39 -28 7 0 13 -4 13
-8 0 -13 50 -33 63 -25 6 4 -4 12 -24 19 -18 7 -28 13 -21 13 28 2 -21 101
-51 101 -14 0 -67 47 -60 53 6 7 -18 13 -87 22 -25 3 -61 17 -80 29 -19 13
-60 31 -90 40 -43 12 -63 24 -91 58 -19 24 -38 51 -42 61 -4 11 -16 21 -26 24
-11 3 -25 18 -31 33 -6 15 -21 31 -32 33 -18 5 -18 3 5 -21z m534 -358 c-3 -4
5 -15 18 -26 25 -19 33 -38 16 -38 -4 0 -22 13 -39 29 -25 25 -28 31 -14 34 9
3 19 5 21 6 2 0 1 -2 -2 -5z"/>
<path d="M1490 480 c0 -11 5 -20 10 -20 6 0 10 -9 10 -19 0 -11 5 -23 10 -26
13 -8 13 11 -2 52 -13 37 -28 44 -28 13z"/>
<path d="M1885 490 c-3 -5 -1 -10 4 -10 6 0 11 5 11 10 0 6 -2 10 -4 10 -3 0
-8 -4 -11 -10z"/>
<path d="M1476 402 c0 -62 13 -146 21 -139 12 12 9 144 -4 170 -7 15 -15 27
-16 27 -1 0 -2 -26 -1 -58z"/>
<path d="M2434 445 c-10 -8 -15 -15 -9 -15 5 0 1 -6 -10 -14 -20 -13 -71 -25
-132 -31 -18 -2 -40 -10 -49 -20 -9 -9 -36 -25 -59 -36 -24 -11 -42 -27 -41
-34 4 -26 12 -25 26 0 7 14 19 25 26 25 7 0 25 11 41 24 24 20 79 35 148 41
30 2 65 24 65 40 0 7 6 15 13 18 6 2 9 7 6 11 -3 3 -14 -1 -25 -9z"/>
<path d="M1866 412 c-10 -22 -15 -45 -12 -51 8 -12 -21 -61 -37 -61 -5 0 -16
-8 -24 -17 -11 -14 -16 -15 -20 -5 -4 10 -8 10 -18 2 -11 -9 -12 -5 -4 23 5
19 6 44 1 57 -7 19 -9 20 -21 6 -10 -12 -11 -19 -2 -30 12 -15 5 -46 -11 -46
-6 0 -5 7 2 15 7 9 11 18 8 20 -7 7 -56 -48 -58 -65 -4 -28 0 -41 10 -35 6 3
10 0 10 -7 0 -7 11 -30 25 -50 15 -22 21 -39 15 -43 -6 -3 -10 -11 -10 -16 0
-5 11 -2 24 8 20 16 35 65 17 61 -3 -1 -16 1 -28 6 -17 5 -23 15 -23 36 0 16
5 32 10 35 6 4 7 12 4 18 -5 9 -4 9 6 0 7 -6 18 -9 24 -7 14 6 20 -43 6 -51
-6 -4 -8 -11 -5 -16 8 -11 50 38 59 69 4 12 12 19 18 16 6 -4 6 -10 -1 -17
-19 -19 -12 -31 8 -13 11 10 18 26 16 37 -2 10 1 22 7 25 7 5 9 0 6 -14 -4
-12 -2 -22 4 -22 5 0 6 -4 3 -10 -3 -5 -1 -10 5 -10 6 0 11 12 9 28 -1 15 2
36 6 46 6 13 3 23 -8 31 -20 14 -22 36 -6 52 6 6 9 17 7 23 -2 7 -12 -6 -22
-28z m-156 -132 c0 -5 -5 -10 -11 -10 -5 0 -8 -4 -4 -9 3 -5 1 -12 -4 -15 -5
-4 -8 2 -6 11 2 10 4 21 4 26 1 11 21 8 21 -3z"/>
<path d="M1678 433 c7 -3 16 -2 19 1 4 3 -2 6 -13 5 -11 0 -14 -3 -6 -6z"/>
<path d="M818 413 c7 -3 16 -2 19 1 4 3 -2 6 -13 5 -11 0 -14 -3 -6 -6z"/>
<path d="M1788 404 c-16 -8 -28 -19 -28 -25 0 -5 10 -3 23 6 13 8 26 13 29 10
2 -3 5 2 5 10 0 8 -1 15 -1 15 -1 -1 -13 -8 -28 -16z"/>
<path d="M1250 390 c0 -21 15 -27 25 -10 3 6 1 10 -5 10 -6 0 -8 5 -5 10 3 6
1 10 -4 10 -6 0 -11 -9 -11 -20z"/>
<path d="M1289 398 c9 -12 10 -18 2 -18 -6 0 -11 -6 -11 -14 0 -8 -8 -17 -17
-19 -10 -2 -6 -3 10 -1 15 2 27 -1 27 -6 0 -6 10 -10 21 -10 17 0 19 3 10 13
-13 16 -5 28 14 20 8 -2 11 -12 8 -21 -4 -15 -3 -15 6 -2 16 23 -12 48 -33 30
-9 -7 -17 -10 -17 -6 -1 3 -2 10 -3 16 0 5 -8 15 -16 22 -12 11 -12 11 -1 -4z"/>
<path d="M848 383 c7 -3 16 -2 19 1 4 3 -2 6 -13 5 -11 0 -14 -3 -6 -6z"/>
<path d="M980 367 c0 -16 38 -53 46 -45 3 3 -2 13 -11 21 -8 9 -15 20 -15 26
0 6 -4 11 -10 11 -5 0 -10 -6 -10 -13z"/>
<path d="M2072 371 c-11 -7 -11 -9 0 -14 9 -3 15 1 15 9 0 8 -1 14 -1 14 -1 0
-7 -4 -14 -9z"/>
<path d="M1078 335 c9 -19 23 -35 31 -35 8 0 29 -11 47 -25 38 -29 41 -30 41
-10 0 8 -6 15 -13 15 -6 0 -14 7 -18 15 -3 8 -12 15 -20 15 -8 0 -28 14 -44
30 -39 39 -43 38 -24 -5z"/>
<path d="M1620 355 c0 -8 4 -15 10 -15 5 0 7 7 4 15 -4 8 -8 15 -10 15 -2 0
-4 -7 -4 -15z"/>
<path d="M1911 323 c-1 -49 -16 -77 -37 -69 -13 5 -44 -24 -44 -40 0 -5 5 -2
10 6 6 9 10 10 10 3 0 -7 -8 -17 -17 -22 -13 -7 -14 -10 -4 -11 8 0 27 14 43
32 15 17 28 27 28 22 0 -5 7 4 15 19 8 15 12 34 8 42 -3 8 0 15 6 15 15 0 14
25 -2 39 -11 9 -14 2 -16 -36z"/>
<path d="M1522 340 c0 -14 2 -19 5 -12 2 6 2 18 0 25 -3 6 -5 1 -5 -13z"/>
<path d="M2144 353 c-21 -4 -63 -63 -45 -63 6 0 11 7 11 15 0 8 14 21 30 30
17 9 30 18 30 20 0 3 -1 4 -2 4 -2 -1 -12 -4 -24 -6z"/>
<path d="M2368 343 c7 -3 16 -2 19 1 4 3 -2 6 -13 5 -11 0 -14 -3 -6 -6z"/>
<path d="M1214 322 c10 -12 21 -20 25 -19 3 1 18 -10 33 -24 20 -19 24 -29 16
-37 -8 -8 -7 -13 5 -18 12 -4 15 -13 11 -29 -3 -13 0 -34 7 -47 7 -12 14 -27
14 -33 4 -37 52 -76 92 -74 15 0 15 2 3 7 -9 4 -26 15 -39 24 -20 14 -22 20
-11 33 9 11 9 15 1 15 -7 0 -9 5 -5 12 5 8 2 9 -9 5 -12 -4 -21 2 -32 23 -19
36 -19 40 1 40 18 0 11 34 -12 61 -8 8 -14 20 -14 26 0 6 -19 19 -42 29 -24
10 -47 20 -53 23 -5 2 -2 -6 9 -17z m146 -212 c0 -5 -4 -10 -10 -10 -5 0 -10
5 -10 10 0 6 5 10 10 10 6 0 10 -4 10 -10z"/>
<path d="M1320 292 c0 -4 9 -15 20 -25 11 -9 20 -12 20 -7 0 6 5 10 10 10 6 0
10 -7 10 -15 0 -8 -4 -15 -9 -15 -5 0 -11 -14 -15 -32 -5 -26 -1 -35 24 -58
16 -15 30 -34 30 -43 0 -10 7 -17 15 -17 8 0 15 5 15 11 0 5 -6 7 -12 3 -8 -4
-10 -3 -5 2 5 5 13 10 18 10 5 1 11 2 14 3 11 2 -36 41 -50 41 -9 0 -12 6 -8
17 4 10 2 14 -4 10 -17 -11 -25 23 -9 38 7 8 17 11 21 7 4 -4 5 7 3 23 -2 23
-8 30 -25 30 -12 0 -25 4 -29 8 -10 9 -34 9 -34 -1z"/>
<path d="M2188 293 c7 -3 16 -2 19 1 4 3 -2 6 -13 5 -11 0 -14 -3 -6 -6z"/>
<path d="M2086 263 c10 -7 12 -13 6 -13 -7 0 -12 -5 -12 -11 0 -8 5 -8 15 1
21 18 19 36 -6 36 -19 0 -19 -1 -3 -13z"/>
<path d="M2122 240 c-7 -12 -10 -25 -7 -30 12 -19 -35 -47 -69 -41 -5 1 -4 -4
2 -12 7 -8 9 -17 5 -21 -4 -4 0 -4 10 0 9 3 17 10 17 15 0 5 9 9 20 9 11 0 21
5 21 10 1 6 3 15 4 20 1 6 3 18 4 28 1 15 3 15 11 2 11 -17 12 -4 2 22 -7 17
-8 16 -20 -2z"/>
<path d="M1434 233 c3 -4 1 -12 -4 -18 -8 -9 -6 -14 5 -19 8 -3 15 -1 15 5 0
6 7 3 16 -5 8 -9 19 -16 24 -16 16 0 20 18 6 29 -11 9 -15 9 -19 -1 -4 -9 -6
-8 -6 3 -1 9 -10 19 -22 22 -12 3 -18 3 -15 0z"/>
<path d="M1806 223 c-4 -13 -11 -23 -15 -23 -4 0 -8 -6 -8 -14 0 -8 6 -12 13
-9 32 12 -13 -63 -50 -84 -8 -4 -16 -24 -18 -43 -1 -19 -7 -38 -13 -42 -6 -5
-3 -8 7 -8 9 0 25 14 35 30 9 17 21 30 26 30 4 0 5 5 2 10 -3 6 -2 10 4 10 6
0 8 7 4 15 -3 9 3 25 13 36 23 26 26 46 7 53 -12 5 -13 9 -3 21 6 8 10 20 8
27 -3 8 -8 4 -12 -9z m-43 -148 c-3 -9 -8 -14 -10 -11 -3 3 -2 9 2 15 9 16 15
13 8 -4z"/>
<path d="M2050 219 c0 -6 -9 -9 -19 -6 -13 3 -18 0 -15 -7 3 -8 -11 -18 -35
-26 -24 -8 -38 -17 -34 -24 3 -6 0 -5 -8 2 -22 20 -29 14 -22 -20 4 -21 3 -29
-5 -24 -6 3 -13 2 -17 -4 -3 -5 -1 -10 5 -10 6 0 8 -5 4 -11 -4 -8 -9 -7 -15
2 -4 7 -4 18 1 25 6 6 6 15 2 19 -4 5 -1 5 6 1 6 -4 12 -2 12 3 0 17 -14 13
-33 -10 -17 -19 -17 -22 -2 -38 8 -10 13 -25 9 -35 -5 -12 -2 -15 10 -10 9 3
16 15 16 25 0 10 3 18 8 17 4 0 15 2 25 6 18 9 24 36 7 36 -5 0 -10 -6 -10
-14 0 -8 -5 -18 -11 -22 -8 -4 -9 1 -4 17 8 25 43 58 63 59 7 0 28 10 47 23
34 22 44 37 25 37 -5 0 -10 -5 -10 -11z"/>
<path d="M1514 187 c-1 -20 6 -38 17 -48 11 -9 19 -21 19 -28 0 -6 4 -11 8
-11 4 0 7 17 7 38 0 28 -4 37 -17 36 -9 -1 -14 4 -12 11 3 6 -1 17 -8 23 -10
8 -13 3 -14 -21z"/>
<path d="M1160 190 c6 -11 16 -20 22 -20 6 0 3 9 -7 20 -10 11 -20 20 -22 20
-2 0 1 -9 7 -20z"/>
<path d="M1725 200 c3 -5 8 -10 11 -10 2 0 4 5 4 10 0 6 -5 10 -11 10 -5 0 -7
-4 -4 -10z"/>
<path d="M2075 200 c-3 -5 -2 -10 4 -10 5 0 13 5 16 10 3 6 2 10 -4 10 -5 0
-13 -4 -16 -10z"/>
<path d="M1448 160 c18 -16 39 -30 48 -30 8 0 13 -4 10 -9 -3 -4 6 -19 19 -31
29 -27 31 -18 6 25 -10 17 -25 29 -34 29 -9 -1 -15 3 -14 8 1 5 -14 16 -33 24
l-35 14 33 -30z"/>
<path d="M954 161 c11 -18 63 -41 78 -36 8 3 34 -13 58 -35 24 -22 50 -40 59
-40 12 0 13 -2 3 -8 -9 -6 -7 -13 10 -27 13 -11 17 -13 11 -5 -22 25 -14 34
10 12 13 -12 27 -22 32 -22 4 0 -11 18 -34 40 -23 22 -45 40 -50 40 -4 0 -18
11 -31 25 -13 13 -46 32 -74 40 -28 9 -57 19 -65 22 -9 3 -11 1 -7 -6z"/>
<path d="M1974 145 c-10 -8 -14 -15 -8 -15 5 0 19 7 30 15 10 8 14 15 8 15 -5
0 -19 -7 -30 -15z"/>
<path d="M1240 142 c0 -12 19 -26 26 -19 2 2 -2 10 -11 17 -9 8 -15 8 -15 2z"/>
<path d="M1995 133 c-19 -10 -25 -18 -16 -21 7 -2 23 5 34 17 25 25 22 26 -18
4z"/>
<path d="M2015 110 c-9 -10 -32 -24 -50 -30 -18 -6 -36 -17 -39 -25 -5 -15
-58 -42 -96 -48 -19 -3 -16 -5 11 -6 19 0 44 6 55 14 24 18 38 19 28 3 -4 -8
-3 -10 2 -5 5 5 9 14 9 20 0 6 16 21 35 34 60 38 75 51 69 57 -3 3 -14 -3 -24
-14z"/>
<path d="M1461 111 c-9 -6 -10 -11 -2 -15 16 -10 13 -46 -4 -52 -16 -6 -11
-24 6 -24 6 0 8 4 5 9 -3 5 5 8 19 7 14 0 25 -7 25 -13 0 -7 4 -13 9 -13 15 0
21 30 11 51 -13 23 -35 26 -26 3 3 -8 2 -12 -4 -9 -6 3 -10 1 -10 -6 0 -7 -3
-10 -6 -7 -3 4 -1 16 6 27 9 17 8 22 -5 28 -13 5 -14 7 -3 14 7 5 9 9 3 9 -5
0 -16 -4 -24 -9z"/>
<path d="M1802 89 c1 -17 -5 -35 -13 -40 -11 -7 -11 -9 4 -9 9 0 18 6 18 13 1
6 3 24 5 40 1 15 -1 27 -6 27 -5 0 -8 -14 -8 -31z"/>
<path d="M1596 63 c3 -25 0 -33 -11 -33 -8 0 -15 -7 -15 -15 0 -8 5 -15 10
-15 6 0 10 5 10 11 0 5 4 8 9 5 5 -3 11 14 12 37 3 28 0 44 -8 44 -7 0 -10
-13 -7 -34z"/>
<path d="M1694 77 c-8 -21 2 -35 16 -21 5 5 6 15 0 24 -8 12 -10 12 -16 -3z"/>
<path d="M1435 70 c-3 -5 -2 -10 4 -10 5 0 13 5 16 10 3 6 2 10 -4 10 -5 0
-13 -4 -16 -10z"/>
<path d="M1560 56 c0 -9 5 -16 10 -16 6 0 10 4 10 9 0 6 -4 13 -10 16 -5 3
-10 -1 -10 -9z"/>
<path d="M1990 60 c-9 -6 -10 -10 -3 -10 6 0 15 5 18 10 8 12 4 12 -15 0z"/>
<path d="M1378 22 c13 -10 35 -18 50 -19 24 -1 22 1 -13 17 -51 24 -66 24 -37
2z"/>
<path d="M1660 20 c-6 -11 -7 -20 -2 -20 6 0 12 9 15 20 3 11 3 20 1 20 -2 0
-8 -9 -14 -20z"/>
</g>
</svg>
